<svg xmlns="http://www.w3.org/2000/svg" fill="none" viewBox="0 0 14 14">
  <path fill="#323B5A" d="M7 0C3.144 0 0 3.144 0 7s3.144 7 7 7 7-3.144 7-7-3.144-7-7-7Zm0 13.111A6.122 6.122 0 0 1 .889 7 6.122 6.122 0 0 1 7 .889 6.122 6.122 0 0 1 13.111 7 6.122 6.122 0 0 1 7 13.111Z"/>
  <g clip-path="url(#a)">
    <path fill="#323B5A" d="M5.485 3.969a.234.234 0 0 1 .165.068l2.89 2.89a.234.234 0 0 1 0 .33l-2.89 2.89a.234.234 0 1 1-.331-.332l2.723-2.723L5.32 4.37a.234.234 0 0 1 .166-.4Z"/>
  </g>
  <defs>
    <clipPath id="a">
      <path fill="#fff" d="M0 0h8v8H0z" transform="rotate(180 5.5 5.5)"/>
    </clipPath>
  </defs>
</svg>
