<svg width="32" height="32" viewBox="0 0 32 32" xmlns="http://www.w3.org/2000/svg">
<path d="M28.3022 3.12887C27.9467 2.07998 26.9511 1.33331 25.7778 1.33331H6.22222C5.04889 1.33331 4.07111 2.07998 3.69778 3.12887L0 13.7778V28C0 28.9778 0.8 29.7778 1.77778 29.7778H3.55556C4.53333 29.7778 5.33333 28.9778 5.33333 28V26.2222H26.6667V28C26.6667 28.9778 27.4667 29.7778 28.4444 29.7778H30.2222C31.2 29.7778 32 28.9778 32 28V13.7778L28.3022 3.12887ZM6.22222 20.8889C4.74667 20.8889 3.55556 19.6978 3.55556 18.2222C3.55556 16.7466 4.74667 15.5555 6.22222 15.5555C7.69778 15.5555 8.88889 16.7466 8.88889 18.2222C8.88889 19.6978 7.69778 20.8889 6.22222 20.8889ZM25.7778 20.8889C24.3022 20.8889 23.1111 19.6978 23.1111 18.2222C23.1111 16.7466 24.3022 15.5555 25.7778 15.5555C27.2533 15.5555 28.4444 16.7466 28.4444 18.2222C28.4444 19.6978 27.2533 20.8889 25.7778 20.8889ZM3.55556 12L6.22222 3.99998H25.7778L28.4444 12H3.55556Z"/>
</svg>
