<svg width="32" height="32" viewBox="0 0 32 32" xmlns="http://www.w3.org/2000/svg">
<path d="M8.72728 14.5778V17.4222H23.2727V14.5778C23.2727 11.9325 25.1346 9.72801 27.6364 9.08801V7.46668C27.6364 5.12001 25.6727 3.20001 23.2727 3.20001H8.72728C6.32728 3.20001 4.36365 5.12001 4.36365 7.46668V9.08801C6.86547 9.72801 8.72728 11.9325 8.72728 14.5778Z"/>
<path d="M29.0909 11.7333C27.4909 11.7333 26.1818 13.0133 26.1818 14.5778V20.2667H5.81818V14.5778C5.81818 13.0133 4.50909 11.7333 2.90909 11.7333C1.30909 11.7333 0 13.0133 0 14.5778V21.6889C0 24.0356 1.96364 25.9556 4.36364 25.9556V27.3778C4.36364 28.16 5.01818 28.8 5.81818 28.8C6.61818 28.8 7.27273 28.16 7.27273 27.3778V25.9556H24.7273V27.3778C24.7273 28.16 25.3818 28.8 26.1818 28.8C26.9818 28.8 27.6364 28.16 27.6364 27.3778V25.9556C30.0364 25.9556 32 24.0356 32 21.6889V14.5778C32 13.0133 30.6909 11.7333 29.0909 11.7333Z"/>
</svg>
