<svg width="32" height="32" viewBox="0 0 32 32" xmlns="http://www.w3.org/2000/svg">
<path d="M29.059 20.3581L31.238 18.179L29.059 16L23.619 21.44L10.5599 8.38095L15.9999 2.94095L13.8209 0.761902L11.6418 2.94095L9.46279 0.761902L6.20184 4.02285L4.02279 1.84381L1.84375 4.02285L4.02279 6.2019L0.761841 9.46285L2.94089 11.6419L0.761841 13.8209L2.94089 16L8.38089 10.56L21.4399 23.619L15.9999 29.059L18.179 31.2381L20.358 29.059L22.5371 31.2381L25.798 27.9771L27.9771 30.1562L30.1561 27.9771L27.9771 25.7981L31.238 22.5371L29.059 20.3581Z"/>
</svg>
