<svg xmlns="http://www.w3.org/2000/svg" viewBox="0 0 32 32">
    <path d="M31.33 2.268C30.28.288 28.213-.286 26.164.799c-1.327.703-1.922 1.853-2.12 3.038l-.729-1.284c-.3-.567-1.043-1.01-1.532-.75L12.03 6.965c-.49.259-.541 1.122-.241 1.69l1.562 3.215-8.24-1.563c-.074-.8-.322-1.345-.706-1.391-.553-.067-1.126.993-1.29 2.347-.165 1.353.154 2.514.706 2.58.423.052.861-.547 1.118-1.438l11.185 5.182 1.731 3.598c.3.568.894.73 1.384.47l10.64-5.631c.489-.26.689-.841.39-1.408l-1.055-1.82c.29-1.464.903-2.641 1.478-3.837 1.022-2.129 2.002-4.112.636-6.691Zm-2.885 9.202L25.22 5.876c-.22-1.2-.253-3.13 1.488-4.051 1.503-.796 2.851-.417 3.608 1.012 1.092 2.062.326 3.655-.642 5.672-.43.896-.887 1.867-1.229 2.961ZM4.65 28.421a.664.664 0 0 0 .664-.664v-9.963a.664.664 0 1 0-1.329 0v9.963c0 .367.297.664.664.664Zm-3.986 0a.664.664 0 0 0 .664-.664V15.801a.664.664 0 1 0-1.328 0v11.956c0 .367.297.664.664.664Zm1.993-7.971a.664.664 0 0 0 .664-.663V15.8a.664.664 0 1 0-1.328 0v3.986c0 .366.297.664.664.664Zm0 5.315a.664.664 0 0 0 .664-.665v-3.32a.664.664 0 1 0-1.328 0v3.32c0 .367.297.665.664.665Zm0 5.313a.664.664 0 0 0 .664-.664v-3.321a.664.664 0 1 0-1.328 0v3.321c0 .367.297.664.664.664Zm1.328 0a.664.664 0 1 0 1.329 0V29.75a.664.664 0 1 0-1.329 0v1.328Zm-3.321.664a.664.664 0 0 0 .664-.664V29.75a.664.664 0 1 0-1.328 0v1.328c0 .367.297.665.664.665Z"/>
</svg>
