<svg xmlns="http://www.w3.org/2000/svg" fill="none" viewBox="0 0 32 32">
  <path fill="#5A7197" d="M9.414 6.614a17.151 17.151 0 0 1-4.183-2.507A16.061 16.061 0 0 0 0 15.425h7.428a22.99 22.99 0 0 1 1.986-8.81Zm14.014 9.961h-6.855v7.494c1.722.037 3.376.34 4.934.865a21.527 21.527 0 0 0 1.92-8.359Zm-16 0H0a16.054 16.054 0 0 0 5.401 11.463 17 17 0 0 1 4.061-2.543 22.986 22.986 0 0 1-2.034-8.92ZM13.803.071a15.896 15.896 0 0 0-7.68 3.273 15.98 15.98 0 0 0 3.786 2.23A23.032 23.032 0 0 1 13.802.07Zm7.688 6.956a16.997 16.997 0 0 1-4.918.895v7.503h6.854a21.54 21.54 0 0 0-1.936-8.398ZM16.573.19v6.583a15.758 15.758 0 0 0 4.407-.787A21.802 21.802 0 0 0 16.573.189Zm7.998 15.236H32a16.065 16.065 0 0 0-5.23-11.32 17.155 17.155 0 0 1-4.208 2.521 22.697 22.697 0 0 1 2.009 8.799Zm1.302-12.08a15.902 15.902 0 0 0-7.8-3.292 22.87 22.87 0 0 1 3.987 5.535c1.38-.57 2.658-1.33 3.813-2.244Zm-14.886 2.63c1.404.467 2.893.742 4.44.797V.078a21.937 21.937 0 0 0-4.44 5.897Zm5.586 19.252v6.583a21.79 21.79 0 0 0 4.425-5.828 15.442 15.442 0 0 0-4.425-.755Zm1.498 6.72a15.878 15.878 0 0 0 7.834-3.32 15.753 15.753 0 0 0-3.826-2.254 22.858 22.858 0 0 1-4.008 5.574Zm4.51-6.618a16.925 16.925 0 0 1 4.22 2.54A16.062 16.062 0 0 0 32 16.575h-7.428a22.687 22.687 0 0 1-1.99 8.754Zm-12.06-.266a16.56 16.56 0 0 1 4.906-.976v-7.512H8.572a21.822 21.822 0 0 0 1.949 8.488Zm4.906 6.859v-6.677a15.453 15.453 0 0 0-4.393.864 21.93 21.93 0 0 0 4.393 5.813ZM6.305 28.79a15.886 15.886 0 0 0 7.495 3.14 23.047 23.047 0 0 1-3.835-5.393 15.814 15.814 0 0 0-3.66 2.253Zm2.269-13.365h6.854V7.923a16.978 16.978 0 0 1-4.942-.903 21.828 21.828 0 0 0-1.912 8.405Z"/>
</svg>
