<svg xmlns="http://www.w3.org/2000/svg" viewBox="0 0 18 18">
  <path d="M17.7543 9.0351c0 1.2234-.0246 2.4504.007 3.6738.0528 2.1657-1.3078 3.8391-3.041 4.5844-.6961.2988-1.4273.457-2.1832.457-2.366.0036-4.7355.0352-7.1016-.0105-1.7824-.0352-3.2484-.7805-4.2996-2.25-.552-.7734-.8156-1.6523-.8156-2.6051V5.3261c0-2.0566 1.002-3.4945 2.7809-4.4297.7734-.4043 1.6136-.5765 2.489-.58 2.2957 0 4.595-.0141 6.8907.007 1.7824.014 3.2695.696 4.3664 2.1305.6117.8015.907 1.7226.907 2.7351v3.8461Zm-16.1367 0v3.8672c0 .5766.1336 1.118.4324 1.6066.784 1.2832 1.9688 1.909 3.4383 1.9336 2.359.0352 4.7215.0141 7.084.0071.58 0 1.1425-.1196 1.6664-.3692 1.4273-.682 2.2254-1.7683 2.2183-3.3996-.014-2.4961-.0035-4.9922-.0035-7.4883 0-.7066-.2004-1.3535-.6187-1.923-.8086-1.0934-1.9266-1.6313-3.2625-1.6453-2.3555-.0282-4.711-.0106-7.0664-.007-.5028 0-.988.1019-1.459.2777-1.2938.4816-2.4961 1.7015-2.4399 3.498.0422 1.2164.0106 2.4293.0106 3.6422Z"/>
  <path d="M9.0563 12.7617c-2.2676 0-4.0958-1.807-4.0993-4.057-.0035-2.2149 1.8387-4.029 4.0922-4.029 2.2606-.0034 4.0957 1.8071 4.0993 4.0395 0 2.2289-1.8317 4.043-4.0922 4.0465Zm0-1.3008c1.5433 0 2.7949-1.2339 2.7914-2.7527-.0035-1.5047-1.2551-2.7351-2.7914-2.7351-1.5434 0-2.802 1.227-2.802 2.7421.0035 1.5188 1.2586 2.7493 2.802 2.7457Zm4.5672-8.0156c.4746 0 .8613.4043.8613.9-.0035.4957-.3938.8965-.8684.893-.4675-.0035-.8508-.4043-.8508-.8895-.0035-.4957.3833-.9035.8579-.9035Z"/>
</svg>
