<svg xmlns="http://www.w3.org/2000/svg" viewBox="0 0 32 32">
  <path d="M20.476 3.218c-.157-.396-.685-.687-1.204-.886.06 1.193-1.176 3.094-2.06 4.292 1.233-.655 2.477-1.834 2.984-2.392.29-.38.392-.73.28-1.014ZM1.21 29.943c-.023.015-.052.011-.077.02l-.292 1.343a.39.39 0 0 0 .22.432c.09.04.93.381 3.409.032a.383.383 0 0 0 .325-.43c0-.013-.105-.905.281-1.485-.524-.257-2.188-.925-3.867.088ZM18.474 2.204c-.06-.128-.24-.196-.53-.196A.429.429 0 0 1 17.865 2c-.006-.001-.528-.105-1.45-.105-.982 0-2.03.113-3.12.336a.488.488 0 0 0-.371.328c-.118.36-.085 1.525 2.728 4.525.003.002.009.002.015.002h.014a.977.977 0 0 0 .24-.054c1.256-1.546 2.9-4.093 2.552-4.828Zm-8.008 1.291c-.14.46.406 1.043.886 1.45.025.022 1.475 1.287 3.012 1.862-1.699-1.95-2.411-3.375-2.196-4.35-.79.22-1.562.57-1.702 1.038Z"/>
  <path d="M15.418 15.113c-.314-2.155-.021-7.006-.005-7.269-.048-.003-.096-.004-.144-.011-.486-.027-.959-.08-1.414-.17.052.393.047.953-.162 1.71-.258.94-.018 1.641.179 2.208.079.228.154.448.188.658.072.46.036.987.015 1.335-.009.141-.021.255-.015.315a.38.38 0 0 1-.305.447.318.318 0 0 1-.074.009.398.398 0 0 1-.382-.318c-.023-.108-.015-.24.003-.503.024-.333.053-.79-.006-1.165a3.687 3.687 0 0 0-.155-.528c-.22-.628-.515-1.492-.194-2.663.263-.952.146-1.493.076-1.692-3.474-.922-5.846-3.194-5.967-3.31v-.002a3.971 3.971 0 0 0-1.4 1.01c-.9 1.023-1.271 2.502-1.105 4.398-.083.6-.554 4.13-.156 5.53-.373.517-1.308 1.957-.918 2.952-.217.513-.785 1.963-.656 2.864.041.268-.106.596-.306 1.054-.346.794-.868 1.987-.868 3.983 0 .975-.256 1.346-.48 1.677-.307.442-.48.802-.16 1.547 2.318-1.255 4.538.049 4.636.105a.356.356 0 0 1 .088.08c.044-.024.095-.044.123-.084.063-.088.622-.938 1.173-4.504.165-1.078.363-1.94.556-2.611a153.622 153.622 0 0 1-.401 5.136c.027.005.05.008.075.018.048.024 3.182 1.569 8.17 1.723-.103-3.067-.197-7.692.121-8.729.42-1.363.184-3.01-.117-5.096l-.013-.104Zm-3.301 5.115c-.154.465-1.563 4.56-3.211 5.447a.39.39 0 0 1-.523-.159.386.386 0 0 1 .157-.523c1.169-.627 2.449-3.83 2.844-5.01a.39.39 0 0 1 .489-.243.382.382 0 0 1 .244.488Zm-.366-2.626h-.006c-2.914-.049-4.712-6.48-4.91-7.21a.387.387 0 0 1 .748-.2c.488 1.835 2.195 6.607 4.174 6.64a.386.386 0 0 1-.006.77Z"/>
  <path d="M11.731 6.224c-.508-.365-.846-.66-.884-.691-.952-.804-1.333-1.568-1.125-2.261.418-1.385 3.07-1.755 3.432-1.799l.005-.001a16.383 16.383 0 0 1 3.257-.346c.87 0 1.413.085 1.565.11.14.003.258.025.373.05.013.001.022-.003.034 0 .236.04 2.32.416 2.806 1.648.219.556.082 1.16-.407 1.795-.066.073-.71.773-1.607 1.495 1.56-.573 3.227-1.485 4.034-2.916l.008-.008a1.989 1.989 0 0 0-.237-.795c-.471-.88-1.56-1.556-3.218-1.996-.154-.055-3.904-1.284-8.553.287-1.931.65-2.988 1.286-3.324 1.997-.195.41-.127.77-.034 1.05.553.47 1.957 1.586 3.875 2.38Z"/>
  <path d="M29.926 24.835c.004-.63-.044-4.164-1.512-6.492.006-.475-.036-2.15-.805-3.17-.107-.609-.684-4.06-.527-6.43.006-.042.541-3.91-3.168-5.133-.008.025-.013.051-.025.077-1.097 1.947-3.48 3.017-5.39 3.584-.228.781-.618 2.597-.176 3.478.512 1.03.402 1.728.306 2.342a4.568 4.568 0 0 0-.073.67.387.387 0 0 1-.388.378h-.01a.385.385 0 0 1-.377-.396c.006-.28.045-.53.082-.77.09-.574.17-1.068-.232-1.88-.508-1.013-.21-2.695.005-3.591-.438.108-.826.189-1.133.245-.11.027-.22.05-.331.07.003.023.012.044.01.065-.003.053-.303 5.032-.003 7.123l.013.097c.317 2.185.561 3.91.092 5.438-.269.871-.194 5.257-.086 8.521 2.526.002 5.477-.362 8.718-1.436.015-.006.03-.004.044-.006-.059-.544-.178-1.657-.331-3.016.106.356.282.767.592 1.276.39.64.378.92.364 1.272-.021.478-.036 1.026.771 2.246.61-.386 2.204-1.158 4.372-.608.027-.103.05-.206.088-.31a.615.615 0 0 0 .079-.099c.197-.311.235-.977-.97-3.545Zm-6.914.68a.386.386 0 0 1-.524.16c-1.646-.887-3.053-4.982-3.211-5.448a.386.386 0 0 1 .247-.487.392.392 0 0 1 .49.242c.394 1.18 1.674 4.385 2.842 5.01a.386.386 0 0 1 .156.524Zm1.549-14.846c-.196.732-1.996 7.162-4.908 7.212h-.007a.389.389 0 0 1-.387-.38.384.384 0 0 1 .378-.393c1.98-.035 3.686-4.805 4.175-6.641a.386.386 0 0 1 .472-.272c.21.055.33.265.277.474Z"/>
  <path d="M16.228 29.858c.02.521.038.999.056 1.408 2.315-.063 5.096-.382 8.418-1.153a.388.388 0 0 0 .3-.378v-1.33c-3.272 1.066-6.237 1.443-8.774 1.453Zm-9.188-1.79-.21 1.043a.39.39 0 0 0 .161.393c.146.102 2.692 1.785 8.522 1.771-.016-.347-.039-.832-.059-1.433-4.674-.121-7.75-1.454-8.414-1.774Zm23.59 1.492c-1.916-.517-3.328.16-3.845.48.182.337.37.842.303 1.462a.391.391 0 0 0 .322.42c.039.008.495.078 1.094.078.67 0 1.525-.088 2.185-.458a.386.386 0 0 0 .173-.476c0-.011-.245-.682-.232-1.505Z"/>
</svg>
