<svg width="32" height="32" viewBox="0 0 32 32" xmlns="http://www.w3.org/2000/svg">
<path d="M28.5774 4.9664C28.5772 4.71906 28.4835 4.47184 28.2968 4.28294C28.1102 4.09454 27.8653 4 27.6202 4H4.3796C4.13479 4 3.88967 4.09454 3.70279 4.28294C3.51623 4.47184 3.42261 4.719 3.42261 4.9664V21.1186H28.5774V4.9664ZM16 4.54095C16.1575 4.54095 16.2852 4.66939 16.2852 4.82869C16.2852 4.98704 16.1575 5.1163 16 5.1163C15.8428 5.1163 15.7149 4.98704 15.7149 4.82869C15.7149 4.66939 15.8427 4.54095 16 4.54095ZM26.9366 19.4619H5.0631V5.65674H26.9366V19.4619Z"/>
<path d="M0.342802 26.7302H31.6587C31.793 26.7302 31.9202 26.6497 31.9747 26.517C32.0293 26.3842 31.9952 26.2364 31.9004 26.1409L28.5781 22.7958H3.42341L0.101366 26.1409C0.00617894 26.2364 -0.0275709 26.3842 0.0269913 26.517C0.081491 26.6497 0.208365 26.7302 0.342802 26.7302ZM3.59553 24.6869L4.49972 23.6243H27.5015L28.4057 24.6869C28.4732 24.7658 28.4926 24.8805 28.4468 24.9821C28.4005 25.0831 28.3019 25.1425 28.1982 25.1425H19.3036L19.3536 25.3734C19.3636 25.4206 19.3536 25.4718 19.3213 25.5127C19.2886 25.5528 19.2411 25.5739 19.1933 25.5739H12.8078C12.7603 25.5739 12.7129 25.5528 12.6801 25.5127C12.6479 25.4718 12.6375 25.4206 12.6479 25.3734L12.6979 25.1425H3.80309C3.69972 25.1425 3.60053 25.0831 3.55478 24.9821C3.50866 24.8805 3.52835 24.7658 3.59553 24.6869Z"/>
<path d="M18.7689 27.9474C18.755 27.98 18.7358 28.0112 18.7123 28.0393C18.6423 28.1233 18.5395 28.1715 18.4304 28.1715H13.5696C13.4605 28.1715 13.3578 28.1232 13.2872 28.0393C13.2638 28.0111 13.2448 27.98 13.2306 27.9474H0.342046C0.214547 27.9474 0.0956723 27.9021 0.000610352 27.8251V28.1716C0.000610352 28.3834 0.0807974 28.5956 0.240796 28.757C0.401108 28.9191 0.610857 29 0.820793 29H31.179C31.3891 29 31.5988 28.919 31.7587 28.757C31.9193 28.5956 31.9993 28.3833 31.9993 28.1716V27.8251C31.9042 27.902 31.7854 27.9474 31.6579 27.9474H18.7689ZM2.89159 28.6544C2.79303 28.6544 2.71303 28.5734 2.71303 28.4734C2.71303 28.3744 2.79303 28.2928 2.89159 28.2928C2.99047 28.2928 3.07047 28.3744 3.07047 28.4734C3.07047 28.5735 2.99047 28.6544 2.89159 28.6544ZM3.75146 28.6544C3.6529 28.6544 3.57278 28.5734 3.57278 28.4734C3.57278 28.3744 3.65296 28.2928 3.75146 28.2928C3.85034 28.2928 3.93084 28.3744 3.93084 28.4734C3.93078 28.5735 3.85034 28.6544 3.75146 28.6544ZM4.61158 28.6544C4.51271 28.6544 4.43252 28.5734 4.43252 28.4734C4.43252 28.3744 4.51271 28.2928 4.61158 28.2928C4.71015 28.2928 4.79033 28.3744 4.79033 28.4734C4.79033 28.5735 4.71015 28.6544 4.61158 28.6544Z"/>
<path d="M6 7.41156C6 6.85385 6.44772 6.40173 7 6.40173H25C25.5523 6.40173 26 6.85385 26 7.41156V17.5099C26 18.0676 25.5523 18.5197 25 18.5197H7C6.44772 18.5197 6 18.0676 6 17.5099V7.41156Z" />
</svg>
