<svg xmlns="http://www.w3.org/2000/svg" fill="none" viewBox="0 0 14 14">
  <path fill="#5A7197" d="M14 7.124c0-.995-.73-1.524-1.75-1.524H9.304c.204-.84.321-1.649.321-2.333C9.625.56 8.925 0 8.312 0c-.408 0-.7.031-1.108.311C7.088.373 7.03.498 7 .622l-.438 2.52C6.096 4.48 4.9 5.632 3.938 6.41v6.658c.321 0 .73.186 1.109.404.466.249.962.498 1.516.498h4.171c.875 0 1.517-.747 1.517-1.4 0-.125 0-.249-.03-.342.555-.218.905-.716.905-1.276a1.7 1.7 0 0 0-.146-.715c.321-.25.671-.654.671-1.152 0-.248-.117-.56-.292-.777.38-.311.642-.747.642-1.183Zm-.904 0c0 .592-.584.654-.671.934-.088.31.35.435.35.995 0 .591-.67.591-.758.871-.117.343.204.467.204 1.027v.093c-.088.467-.758.498-.875.685-.117.218.029.342.029.84 0 .28-.292.467-.642.467h-4.17c-.321 0-.73-.187-1.109-.405-.35-.187-.7-.373-1.079-.467V7.218c1.08-.871 2.48-2.21 3.033-3.827 0-.031 0-.062.03-.062L7.846.996c.146-.063.262-.063.496-.063.087 0 .437.56.437 2.334 0 .684-.117 1.462-.35 2.333h-.117c-.233 0-.437.218-.437.467 0 .249.204.466.438.466h3.937c.438 0 .846.218.846.591Z"/>
  <path fill="#5A7197" d="M3.5 14H.875C.379 14 0 13.595 0 13.067V6.533C0 6.004.38 5.6.875 5.6H3.5c.496 0 .875.404.875.933v6.534c0 .528-.38.933-.875.933ZM.875 6.533v6.534H3.5V6.533H.875Z"/>
</svg>
