<svg xmlns="http://www.w3.org/2000/svg" viewBox="0 0 18 18">
  <path d="M6.0997 17.884V6.2824c0-.1054-.007-.1898.1476-.1898 1.118.007 2.2395.0035 3.3574.0035.0282 0 .0563.007.102.014v1.466c.014.0036.0246.0106.0387.0141.1406-.1828.2742-.3726.4218-.552.4289-.5273.9668-.914 1.5996-1.146.3446-.1266.7207-.204 1.0829-.2215.4992-.021 1.0089-.014 1.5011.0703.8086.1371 1.5223.4957 2.1129 1.0828.559.552.9281 1.2164 1.1285 1.9653.1055.3972.1723.805.2356 1.2093.0422.2813.0633.5696.0633.8508.0035 2.2852.0035 4.5703.0035 6.8555 0 .0562-.0035.1125-.0071.1863h-.1792c-1.0793 0-2.1551-.0035-3.2344.0035-.1793 0-.211-.0597-.211-.2214.0036-2.1024.0106-4.2083-.0035-6.3106-.0035-.3691-.0386-.7523-.1336-1.1074-.1722-.6223-.566-1.0723-1.1918-1.3008-.5273-.1934-1.0617-.2285-1.6031-.0914-.5976.1512-1.009.5484-1.3184 1.0723-.239.4043-.2847.8507-.2882 1.2972-.014 2.134-.007 4.2645-.007 6.3985v.2496c-1.213.0035-2.4047.0035-3.6176.0035Zm-2.264-5.8395c0 1.8739-.0035 3.7477.0036 5.6215 0 .1688-.0352.232-.2215.2285a164.254 164.254 0 0 0-3.2168 0c-.1758 0-.2145-.0597-.2145-.2215.0035-3.7652.0035-7.5339 0-11.2992 0-.1511.0422-.2039.1969-.2039 1.0828.007 2.1656.007 3.252 0 .1687 0 .2003.0633.2003.2145v5.6601ZM1.9727.1688C3.1293.1407 3.8219.981 3.8254 2.011c.0035 1.0547-.7348 1.8422-1.895 1.8387-1.0792 0-1.8421-.7735-1.8386-1.8668C.0953.9599.8371.1336 1.9727.1689Z"/>
</svg>
