<svg xmlns="http://www.w3.org/2000/svg" fill="none" viewBox="0 0 14 14">
  <path fill="#5A7197" d="M9.665.764a5.03 5.03 0 0 0-5.33 0C2.249 2.074 1.58 4.629 2.782 6.705L7 14l4.218-7.295c1.2-2.076.534-4.63-1.553-5.941Zm.72 5.513L7 12.13 3.616 6.277C2.653 4.61 3.188 2.56 4.862 1.509A4.015 4.015 0 0 1 7 .896a4.01 4.01 0 0 1 2.138.613c1.674 1.052 2.21 3.101 1.247 4.768Z"/>
  <path fill="#5A7197" d="M7 1.75a2.19 2.19 0 0 0-2.188 2.188A2.19 2.19 0 0 0 7 6.124a2.19 2.19 0 0 0 2.188-2.188A2.19 2.19 0 0 0 7 1.75Zm0 3.5a1.314 1.314 0 0 1-1.313-1.313c0-.723.59-1.312 1.313-1.312.724 0 1.313.589 1.313 1.313 0 .723-.59 1.312-1.313 1.312Z"/>
</svg>
