<svg xmlns="http://www.w3.org/2000/svg" fill="none" viewBox="0 0 14 14">
  <path fill="#5A7197" d="m13.488 4.225-.619.62-3.713-3.713.62-.62a1.75 1.75 0 0 1 2.475 0l1.237 1.239a1.751 1.751 0 0 1 0 2.474ZM4.825 11.65a.437.437 0 1 0 .619.619l6.807-6.805-.62-.62-6.806 6.806ZM1.731 8.556a.437.437 0 1 0 .619.619l6.806-6.806-.618-.618-6.807 6.805Zm8.043-5.569L2.968 9.793a.876.876 0 0 0 1.239 1.237l6.806-6.805-1.239-1.238Zm-5.57 9.898a1.282 1.282 0 0 1-.347-.749 1.758 1.758 0 0 1-.27.027c-.467 0-.906-.183-1.237-.514a1.74 1.74 0 0 1-.513-1.237c0-.085.013-.168.025-.251a1.298 1.298 0 0 1-.75-.368c-.02-.02-.026-.046-.044-.067L0 14l4.263-1.067c-.019-.017-.04-.03-.058-.048Z"/>
</svg>
