<svg xmlns="http://www.w3.org/2000/svg" fill="none" viewBox="0 0 16 16">
  <path fill="#5A7197" d="M10.898 14.064a6.213 6.213 0 0 1-1.45-.182c-1.639-.396-3.326-1.399-4.75-2.824-1.425-1.426-2.429-3.113-2.824-4.75-.416-1.722-.12-3.195.835-4.15l.273-.272a1.319 1.319 0 0 1 1.863 0L6.41 3.452a1.318 1.318 0 0 1 0 1.863l-.925.924a10.907 10.907 0 0 0 1.759 2.27 10.917 10.917 0 0 0 2.27 1.76l.925-.925a1.316 1.316 0 0 1 1.863 0l1.565 1.565a1.317 1.317 0 0 1 0 1.863l-.272.273c-.673.674-1.604 1.02-2.698 1.02ZM3.913 2.437a.375.375 0 0 0-.268.112l-.273.272c-.715.715-.924 1.875-.588 3.266.355 1.472 1.27 3.003 2.575 4.308 1.306 1.305 2.836 2.218 4.309 2.575 1.39.336 2.55.127 3.265-.588l.272-.272a.38.38 0 0 0 0-.537l-1.565-1.566a.38.38 0 0 0-.537 0L9.93 11.179a.47.47 0 0 1-.547.085c-.961-.497-1.93-1.22-2.802-2.092C5.71 8.3 4.988 7.332 4.49 6.37a.469.469 0 0 1 .085-.547l1.172-1.172a.38.38 0 0 0 0-.537L4.182 2.549a.377.377 0 0 0-.269-.112Z"/>
  <path fill="#5A7197" d="M11.398 8.429a.469.469 0 0 1-.468-.469 3.105 3.105 0 0 0-3.102-3.102.469.469 0 0 1 0-.937 4.044 4.044 0 0 1 4.04 4.04.469.469 0 0 1-.47.468Z"/>
  <path fill="#5A7197" d="M13.38 8.43a.469.469 0 0 1-.47-.47 5.09 5.09 0 0 0-5.082-5.083.469.469 0 0 1 0-.937c3.32 0 6.02 2.7 6.02 6.02a.468.468 0 0 1-.468.47Z"/>
</svg>
