<svg xmlns="http://www.w3.org/2000/svg" viewBox="0 0 116 20" class="stars__star">
    <path d="M10,1.62,12.64,7l.12.24.26,0,5.9.85-4.27,4.17-.19.18,0,.26,1,5.89-5.29-2.78L10,15.7l-.23.12L4.48,18.6l1-5.89,0-.26-.19-.18L1.07,8.1,7,7.25l.26,0L7.36,7Z"/>
    <path d="M34,1.62,36.64,7l.12.24.26,0,5.9.85-4.27,4.17-.19.18,0,.26,1,5.89-5.29-2.78L34,15.7l-.23.12L28.48,18.6l1-5.89.05-.26-.19-.18L25.07,8.1,31,7.25l.26,0L31.36,7Z"/>
    <path d="M58,1.62,60.64,7l.12.24.26,0,5.9.85-4.27,4.17-.19.18,0,.26,1,5.89-5.29-2.78L58,15.7l-.23.12L52.48,18.6l1-5.89,0-.26-.19-.18L49.07,8.1,55,7.25l.26,0L55.36,7Z"/>
    <path d="M82,1.62,84.64,7l.12.24.26,0,5.91.85-4.28,4.17-.19.18.05.26,1,5.89-5.29-2.78L82,15.7l-.23.12L76.48,18.6l1-5.89.05-.26-.19-.18L73.07,8.1,79,7.25l.26,0L79.36,7Z"/>
    <path d="M106,1.62,108.64,7l.12.24.26,0,5.91.85-4.28,4.17-.19.18.05.26,1,5.89-5.29-2.78L106,15.7l-.23.12-5.29,2.78,1-5.89.05-.26-.19-.18L97.07,8.1,103,7.25l.26,0,.12-.24Z"/>
</svg>