<svg xmlns="http://www.w3.org/2000/svg" fill="none" viewBox="0 0 14 14">
  <path fill="#5A7197" d="M9.8004 14h-5.67c-1.155 0-2.065-.945-2.065-2.065V5.6c0-.21.14-.35.35-.35.21 0 .35.14.35.35v6.335c0 .77.63 1.365 1.365 1.365h5.67c.77 0 1.365-.63 1.365-1.365V5.6c0-.21.14-.35.35-.35.21 0 .35.14.35.35v6.335c0 1.12-.945 2.065-2.065 2.065Zm1.8544-12.285h-2.66C8.8198.735 7.9798 0 6.9649 0s-1.855.735-2.03 1.715h-2.66c-.805 0-1.435.63-1.435 1.435s.63 1.4 1.435 1.4h9.415c.805 0 1.435-.63 1.435-1.435s-.665-1.4-1.47-1.4ZM6.9648.7c.63 0 1.155.42 1.295 1.015h-2.625c.175-.595.7-1.015 1.33-1.015Zm4.69 3.15h-9.38c-.385 0-.735-.315-.735-.735 0-.385.315-.735.735-.735h9.415c.385 0 .735.315.735.735-.035.42-.35.735-.77.735Z"/>
  <path fill="#5A7197" d="M4.515 12.285c-.21 0-.35-.14-.35-.35V6.09c0-.21.14-.35.35-.35.21 0 .35.14.35.35v5.845c0 .175-.175.35-.35.35Zm4.9004 0c-.21 0-.35-.14-.35-.35V6.09c0-.21.14-.35.35-.35.21 0 .35.14.35.35v5.845c0 .175-.175.35-.35.35Zm-2.4502 0c-.21 0-.35-.14-.35-.35V6.09c0-.21.14-.35.35-.35.21 0 .35.14.35.35v5.845c0 .175-.175.35-.35.35Z"/>
</svg>
