<svg xmlns="http://www.w3.org/2000/svg" viewBox="0 0 18 18">
  <path fill-rule="evenodd" d="M18.0003 3.2757a7.2115 7.2115 0 0 1-2.1205.5958c.7627-.468 1.3482-1.2102 1.6239-2.0942-.7142.4334-1.5034.7487-2.3466.9177-.6719-.7356-1.6324-1.195-2.6952-1.195-2.0381 0-3.6915 1.6955-3.6915 3.7866 0 .2969.0316.585.095.8625-3.069-.1584-5.7895-1.6643-7.6121-3.958-.318.5613-.4998 1.2124-.4998 1.9058 0 1.3132.652 2.4724 1.6429 3.1517-.6043-.0184-1.175-.1907-1.6736-.4723v.0465c0 1.8353 1.273 3.3661 2.9635 3.7129-.3095.0889-.636.1333-.973.1333a3.5905 3.5905 0 0 1-.6953-.0672c.47 1.5039 1.833 2.5992 3.4495 2.6284-1.2637 1.0163-2.8568 1.6219-4.5863 1.6219A7.363 7.363 0 0 1 0 14.8c1.6345 1.0726 3.5764 1.6999 5.6609 1.6999 6.7934 0 10.507-5.7693 10.507-10.7736 0-.1646-.0032-.3293-.0095-.4907a7.5761 7.5761 0 0 0 1.8419-1.96Z"/>
</svg>
