<svg xmlns="http://www.w3.org/2000/svg" fill="none" viewBox="0 0 40 40">
  <path fill="#fff" d="M8.029 40s-.81-7.15 6.161-7.948h2.983v-1.385s2.098.908 4.223.101l.067 1.284h3.485s6.07.61 5.703 7.948H8.029Z"/>
  <path fill="#5A7197" d="M30.659 40H8l.108-1.838c.21-3.59 3.038-6.329 6.274-6.329h2.93v.367h-2.734c-3.119 0-5.844 2.637-6.047 6.091l-.075 1.276L20 40l10.6-.433-.041-1.276c-.203-3.454-2.928-6.091-6.047-6.091h-2.767v-.367h2.943c3.237 0 6.065 2.74 6.275 6.329L31.07 40h-.411Z"/>
  <path fill="#5A7197" d="M17.545 30.147v2.056a1.932 1.932 0 0 0 3.867 0V30.19c.112-.034.223-.071.333-.112v2.14a2.284 2.284 0 1 1-4.567 0v-2.203c.121.048.243.092.367.132Z"/>
  <path fill="#fff" d="M19.546 9.935c4.22 0 7.432 3.702 7.26 7.938l-.233 5.748c-.66 3.903-3.352 6.72-6.998 7.114-3.557-.374-6.3-3.212-7.056-7.114l-.234-5.748c-.171-4.236 3.04-7.938 7.26-7.938Z"/>
  <path fill="#5A7197" fill-rule="evenodd" d="m27.272 17.629-.248 6.006c-.703 4.078-3.567 7.022-7.448 7.433-3.785-.39-6.705-3.356-7.51-7.433l-.248-6.006c-.183-4.426 3.235-8.294 7.727-8.294 4.492 0 7.91 3.868 7.727 8.294Zm-7.726-7.827c-4.221 0-7.432 3.702-7.26 7.937l.232 5.749c.757 3.902 3.5 6.74 7.057 7.114 3.646-.394 6.337-3.212 6.998-7.114l.233-5.749c.172-4.236-3.04-7.937-7.26-7.937Z" clip-rule="evenodd"/>
  <path fill="#fff" d="M11.873 18.364s-.081-.065-.234-.113a1.103 1.103 0 0 0-.632-.008c-.246.07-.497.243-.645.598-.074.177-.123.4-.135.68a3.376 3.376 0 0 0 .008.462c.013.17.036.354.07.555 0 0-.031.607.186 1.304.204.683.694 1.52 1.599 1.76-.104-1.733-.108-3.498-.216-5.238Z"/>
  <path fill="#5A7197" d="M11.977 18.433s-1.576-.488-1.52 1.133c0 0 .234 2.35.336 2.566 0 0 .619 1.368 1.64 1.429.999.059 0 0 0 0l.013.44s-1.796-.23-2.143-2.299l-.273-1.88s-.213-2.488 1.849-1.855c2.008.616 0 0 0 0l.098.466Z"/>
  <path fill="#fff" d="M27.186 18.367c.001 0 .082-.064.236-.112a1.113 1.113 0 0 1 .634-.008c.248.07.5.242.648.597a2 2 0 0 1 .136.68 3.3 3.3 0 0 1-.008.462 5.96 5.96 0 0 1-.07.554s.031.607-.187 1.304c-.205.681-.697 1.519-1.606 1.758.105-1.731.108-3.495.217-5.235Z"/>
  <path fill="#5A7197" d="M27.082 18.437s1.584-.488 1.528 1.131c0 0-.236 2.349-.338 2.565 0 0-.622 1.367-1.648 1.428-1.003.06 0 0 0 0l-.012.44s1.803-.23 2.151-2.297l.275-1.879s.214-2.486-1.857-1.854c-2.017.616 0 0 0 0l-.099.466Z"/>
  <path fill="#5A7197" d="M12.485 17.133s2.195-1.113 1.952-4.94c0 0 3.511 3.848 11.974 2.675l.4 3.6s4.976-9.218-3.933-11.333c-8.718-2.07-8.819 3.39-8.819 3.39s-2.673-.4-2.896 2.203c-.224 2.602.582 5.34.582 5.34l.666.534.074-1.469Z"/>
</svg>
