<svg xmlns="http://www.w3.org/2000/svg" viewBox="0 0 32 32">
  <path d="M23.723 0H8.277A4.282 4.282 0 0 0 4 4.277v1.056h24V4.277A4.282 4.282 0 0 0 23.723 0ZM16 22.667c.616 0 1.195-.152 1.716-.403a1.33 1.33 0 0 1 1.881-1.881c.251-.522.403-1.1.403-1.716 0-2.206-1.795-4-4-4s-4 1.794-4 4c0 2.205 1.795 4 4 4Z"/>
  <path d="M4 27.723A4.282 4.282 0 0 0 8.277 32h15.444A4.282 4.282 0 0 0 28 27.723V8H4v19.723ZM16 12a6.674 6.674 0 0 1 6.667 6.667 6.624 6.624 0 0 1-1.111 3.67l.72.72a1.332 1.332 0 0 1-.943 2.276c-.341 0-.682-.13-.942-.39l-.72-.72a6.625 6.625 0 0 1-3.67 1.11 6.674 6.674 0 0 1-6.668-6.666A6.674 6.674 0 0 1 16 12Z"/>
</svg>
