<svg xmlns="http://www.w3.org/2000/svg" viewBox="0 0 18 18">
  <path fill-rule="evenodd" d="M.0837 6.3692c.1125-1.747 1.4661-3.1581 3.2058-3.3444 1.8045-.1818 3.7224-.28 5.7105-.28 1.9881 0 3.906.0982 5.7105.2809 1.7397.1854 3.0933 1.5966 3.2058 3.3435.0549.8604.0837 1.7397.0837 2.6325 0 .8928-.0288 1.7721-.0837 2.6325-.1125 1.7469-1.4661 3.1581-3.2058 3.3444-1.8045.1818-3.7224.2799-5.7105.2799-1.9881 0-3.906-.0981-5.7105-.2808-1.7397-.1854-3.0933-1.5966-3.2058-3.3435A41.3728 41.3728 0 0 1 0 9.0017c0-.8928.0288-1.7721.0837-2.6325Zm11.667 2.6307-4.418 2.6955v-5.391L11.7506 9Z" clip-rule="evenodd"/>
</svg>
