<svg xmlns="http://www.w3.org/2000/svg" viewBox="0 0 32 32">
  <path d="M25.956 14.933c-.71 0-1.39.124-2.022.35l-3.405-6.039h3.507V4.978h-2.134V7.11h-5.026l2.593 4.598h-7.495l-1.397-2.465h1.867V7.111h-6.4v2.133h2.081l1.793 3.165-1.74 2.914a6.013 6.013 0 0 0-2.134-.39A6.051 6.051 0 0 0 0 20.978a6.051 6.051 0 0 0 6.044 6.044c2.97 0 5.443-2.152 5.949-4.977h1.37A2.849 2.849 0 0 0 16 23.822a2.848 2.848 0 0 0 2.844-2.844 2.848 2.848 0 0 0-3.216-2.82l-2.446-4.316h7.49l1.41 2.5a6.034 6.034 0 0 0-2.17 4.636 6.051 6.051 0 0 0 6.044 6.044A6.051 6.051 0 0 0 32 20.978a6.051 6.051 0 0 0-6.044-6.045ZM6.044 22.044a1.067 1.067 0 1 1 0-2.133 1.067 1.067 0 0 1 0 2.133Zm7.729-2.833a2.85 2.85 0 0 0-.41.7h-1.37a6.042 6.042 0 0 0-1.985-3.491l1.12-1.876 2.645 4.667Zm12.183 2.834a1.067 1.067 0 1 1 0-2.134 1.067 1.067 0 0 1 0 2.133Z"/>
</svg>
