<svg xmlns="http://www.w3.org/2000/svg" viewBox="0 0 32 32">
  <path d="m12.384 3.266-5.002 1.84a.361.361 0 0 0-.213.222L.026 24.852c-.072.195.01.413.185.496l4.14 1.954a.32.32 0 0 0 .271.002.372.372 0 0 0 .19-.214l3.512-9.773c-.017 2.384-.014 6.649.131 11.985.007.2.154.363.336.372l5.865.23c.052 0 .317-.007.607-.135 0-.406.009-1.03.012-1.268v-3.14c0-.037.03-3.237.137-6.998l.09-.454-2.631-15.18-.487.537Zm2.085 19.895c0 .212-.155.384-.349.384h-3.568c-.192 0-.349-.172-.349-.384 0-.211.157-.383.35-.383h3.567c.194-.001.35.171.35.384ZM15.665 2c-1.037 0-1.743.18-2.154.328l2.368 13.679L18.59 2.4c-1.047-.261-2.03-.4-2.924-.4Zm16.311 23.202L24.93 5.332a.373.373 0 0 0-.216-.226l-5.005-1.84-.477-.525-3.028 15.178a.405.405 0 0 1-.053.257l-.056.284a477.58 477.58 0 0 0-.127 6.907v3.143a88.732 88.732 0 0 0-.012 1.415.85.85 0 0 0 .34.075h.028l6.951-.666c.184-.016.324-.19.317-.394-.17-5.354-.226-9.495-.243-11.78l3.754 10.15c.071.196.27.29.45.215l4.225-1.823c.18-.08.267-.3.197-.5Zm-10.892-1.658h-3.57c-.192 0-.347-.171-.347-.383s.155-.384.347-.384h3.57c.192 0 .346.172.346.384.002.212-.154.383-.346.383Z"/>
</svg>
