<svg xmlns="http://www.w3.org/2000/svg" fill="none" viewBox="0 0 14 14">
  <path fill="#5A7197" d="M4.375 7h-1.75V5.25h1.75V7Zm3.5-1.75h-1.75V7h1.75V5.25Zm3.5 0h-1.75V7h1.75V5.25Zm-7 2.625h-1.75v1.75h1.75v-1.75Zm3.5 0h-1.75v1.75h1.75v-1.75Zm3.5 0h-1.75v1.75h1.75v-1.75Zm-7 2.625h-1.75v1.75h1.75V10.5Zm3.5 0h-1.75v1.75h1.75V10.5ZM3.5 2.625a.875.875 0 0 0 .875-.875V.875a.875.875 0 1 0-1.75 0v.875c0 .484.392.875.875.875ZM14 1.75V14H0V1.75h2.188a1.314 1.314 0 0 0 2.625 0h4.375a1.314 1.314 0 0 0 2.625 0H14Zm-.875 2.625H.875v8.75h12.25v-8.75ZM10.5 2.625a.874.874 0 0 0 .875-.875V.875a.874.874 0 1 0-1.75 0v.875c0 .484.391.875.875.875Z"/>
</svg>
