<svg xmlns="http://www.w3.org/2000/svg" viewBox="0 0 32 32">
  <path d="M4.733 29.1c0 .6.487 1.087 1.086 1.087h2.75c.6 0 1.086-.487 1.086-1.086v-2.432H4.733v2.432Zm-2.181-4.745c0 .397.166.756.431 1.012a1.4 1.4 0 0 0 .975.394h6.472a1.4 1.4 0 0 0 .975-.394c.265-.256.431-.614.431-1.012L13.64 8.769 1.882 18.561l.67 5.794ZM12.982.896H1.406C.63.896 0 1.526 0 2.302l1.63 14.08L13.946 6.126l.442-3.824c0-.777-.63-1.406-1.406-1.406Zm14.111 12.561c0-.755-.615-1.37-1.37-1.37h-3.381c-.755 0-1.37.615-1.37 1.37v3.097h6.12v-3.097Zm1.833 4.048a3.594 3.594 0 0 0-.489-.034h-8.81a3.562 3.562 0 0 0-3.562 3.563v6.508a3.562 3.562 0 0 0 3.562 3.562h8.81A3.562 3.562 0 0 0 32 27.542v-6.508a3.563 3.563 0 0 0-3.074-3.529ZM24.032 27.1a2.813 2.813 0 1 1 0-5.625 2.813 2.813 0 0 1 0 5.625Z"/>
</svg>
