<svg xmlns="http://www.w3.org/2000/svg" viewBox="0 0 32 32">
  <path d="M10.537 5.697a.366.366 0 0 0 .027.196c.003.005.272.635.48 2.268l.386 2.56c-.066.206-.214.753-.256 1.593l-.91 2.582a.392.392 0 0 1 .108.114c.016.03 1.642 2.833 3.04 2.136.977-.49 1.558-.096 2.025.219.492.331.88.592 1.86-.033 1.022-.654 1.78-.56 2.394-.485.764.095 1.266.157 2.193-1.3a.337.337 0 0 1 .16-.129l-1.448-3.358a.863.863 0 0 0-.148-.598c-.065-.433-.099-.883-.07-1.01l.538-3.053c.143-.51.353-1.131.39-1.205a.354.354 0 0 0 .142-.367c-.008-.026-.625-2.652.214-4.704a.348.348 0 0 0-.08-.384l-.35-.328a.35.35 0 0 0-.177-.091L19.299.007a.355.355 0 0 0-.31.099.35.35 0 0 0-.093.312c.029.137.095.587.034.874-.086.476-.236.978-.319 1.075-.037.044-.076.105-.124.178-.217.335-.667 1.027-2.458 1.074l-.1.001c-1.713 0-2.376-1.06-2.424-1.138-.008-.009-.673-.89-.807-2.17a.35.35 0 0 0-.153-.253.341.341 0 0 0-.291-.044L11.09.367a1.001 1.001 0 0 0-1.022.428.36.36 0 0 0 .05.453c.01.008.968.985.42 4.449ZM7.176 25.192a.37.37 0 0 1 .05.047c.005.004.559.585 2 .585 1.025 0 1.305.105 1.71.293.212.097.45.209.964.33.884.206 1.54.138 2.238.064a9.9 9.9 0 0 1 1.06-.072c.328 0 .51.022.667.04.321.04.498.06 2.142-.28.939-.196 1.416-.252 1.764-.293.508-.058.664-.076 1.689-.509.805-.341 1.899-.283 2.864-.227.682.04 1.505.085 1.816-.09a1.43 1.43 0 0 0 .07-.427c.037-2.288-1.202-3.794-1.699-4.302a7.404 7.404 0 0 1-.801.69c-.619.437-1.21.485-1.781.53-.461.04-.938.078-1.49.311-.812.344-.992.376-1.433.43-.252.028-.592.068-1.275.21-1.279.264-1.48.258-1.809.217-.098-.01-.218-.025-.426-.025-.253 0-.49.025-.735.053a8.112 8.112 0 0 1-.856.056 4.38 4.38 0 0 1-1.026-.118c-.468-.109-.647-.21-.804-.313-.092-.059-.154-.096-.765-.096-1.203 0-2-.498-2.175-.616l-.133-.06c-.524-.237-1.143-.523-1.428-.938-.606.61-1.473 1.664-1.684 2.796.15.45.814 1.356 1.286 1.714Z"/>
  <path d="M26.57 25.625c-.489.336-1.331.293-2.287.241-.889-.05-1.894-.11-2.552.171-1.118.471-1.325.497-1.88.56-.332.04-.793.093-1.703.281-1.684.35-1.94.341-2.365.29-.137-.016-.298-.037-.586-.037-.334 0-.65.037-.986.07-.361.039-.73.077-1.133.077-.401 0-.837-.04-1.336-.154-.584-.138-.868-.27-1.099-.376-.308-.143-.494-.227-1.417-.227-1.606 0-2.34-.64-2.493-.794-.368-.288-.932-.936-1.273-1.545-.57.765-1.944 2.808-1.55 4.316.165.627.6 1.087 1.29 1.367.153.115.618.408 1.497.547.312.048.73.081 1.175.116.583.046 1.64.127 1.898.233v.22c0 .173.124.319.296.344.046.007 1.146.163 2.081.163.563 0 .945-.055 1.19-.174.093-.014.3-.039.534-.039.24 0 .441.026.588.076v.19c0 .176.13.323.306.344.041.004.993.115 1.865.115.668 0 1.304-.048 1.566-.356.332-.073.918-.186 1.225-.189a.424.424 0 0 0 .16.02l3.021-.29a.347.347 0 0 0 .296-.235l4.29-.844a.345.345 0 0 0 .133-.057c.39-.281.613-.663.662-1.14.112-1.098-.783-2.466-1.414-3.284ZM8.11 20.226c.052.25.842.609 1.18.76l.166.075c.02.012.04.023.061.038.005.003.697.503 1.795.503.74 0 .91.06 1.14.208.09.055.202.127.587.22.648.152 1.135.1 1.65.046.27-.03.53-.055.807-.055.25 0 .39.015.511.028.225.028.36.044 1.582-.208.711-.149 1.072-.188 1.333-.22.373-.045.487-.057 1.248-.38.655-.275 1.21-.32 1.701-.36.546-.046.975-.08 1.437-.407.21-.15.71-.58.786-.697a.363.363 0 0 1 .32-.167c-.036-1.354-1.365-2.943-1.993-3.623-1.137 1.754-1.991 1.654-2.82 1.55-.576-.07-1.122-.139-1.932.38-.572.365-1.023.496-1.402.496-.522 0-.891-.252-1.22-.472-.427-.291-.712-.482-1.327-.175-1.876.939-3.617-1.843-3.913-2.343-.414.602-1.927 2.949-1.758 4.667.027.042.05.087.06.136Z"/>
</svg>
