<svg xmlns="http://www.w3.org/2000/svg" fill="none" viewBox="0 0 16 16">
  <path fill="#5A7197" d="M8.094 2C4.41 1.946 1.457 5.243 2.078 9.016c.42 2.56 2.524 4.575 5.094 4.921a5.98 5.98 0 0 0 4.578-1.25l-.625-.78a4.987 4.987 0 0 1-3.828 1.046c-2.128-.287-3.871-1.977-4.22-4.094a4.993 4.993 0 0 1 5-5.859c2.628.039 4.843 2.218 4.923 4.844.002.056 0 .11 0 .172A1.991 1.991 0 0 1 11 10c-.559 0-1-.442-1-1V5H9v.39A2.22 2.22 0 0 0 7.75 5 2.258 2.258 0 0 0 5.5 7.25v1.5A2.258 2.258 0 0 0 7.75 11c.674 0 1.274-.307 1.687-.781.368.467.927.78 1.563.781a3.008 3.008 0 0 0 3-2.984c0-.066.002-.132 0-.203C13.904 4.645 11.262 2.047 8.094 2ZM7.75 6C8.446 6 9 6.554 9 7.25v1.5C9 9.446 8.446 10 7.75 10S6.5 9.446 6.5 8.75v-1.5C6.5 6.554 7.054 6 7.75 6Z"/>
</svg>
