<svg xmlns="http://www.w3.org/2000/svg" viewBox="0 0 18 18">
  <path d="M10.8387 17.877c-.0879.0035-.1442.0105-.2004.0105-1.2024 0-2.4012-.0035-3.6035.0035-.1688 0-.2145-.0457-.2145-.2144.0035-2.7985.0035-5.6004.0035-8.3989v-.2425h-1.937V6.0469h.1898c.5273 0 1.0546-.0035 1.582.0035.1336 0 .1687-.0387.1687-.1688-.007-.784-.007-1.5714 0-2.3554.0036-.5485.0915-1.0828.3446-1.5785.362-.6996.9351-1.1532 1.6594-1.4344.5906-.232 1.2128-.3164 1.8386-.327 1.0196-.014 2.0391-.007 3.0586-.0105.0949 0 .1723-.0035.1723.13-.0035.9669-.0035 1.9337-.0035 2.9005 0 .0105-.0036.021-.0176.0668h-.1934c-.6328 0-1.2656-.0036-1.8984 0-.3656 0-.6609.1476-.8473.4675-.0562.095-.0914.218-.0914.3305-.0105.5977 0 1.1953-.007 1.793 0 .1406.0422.1793.1793.1793.8789-.007 1.7578-.0035 2.6367-.0035h.2566c-.123 1.0054-.2425 1.9898-.3656 2.9847h-2.7105v8.8524Z"/>
</svg>
