<svg xmlns="http://www.w3.org/2000/svg" fill="none" viewBox="0 0 14 14">
  <path fill="#5A7197" d="m13.9 7.546-1.7-2.383 1.7-3.574c.1-.199 0-.397-.1-.596-.2-.1-.4-.199-.6-.1 0 0-1.3.795-3 .795s-3-.794-3-.794C7.1.894 5.6 0 3.7 0S.2.894.2.894C.1.993 0 1.19 0 1.29V14h1V8.142c.5-.199 1.5-.695 2.8-.695 1.7 0 3 .794 3 .794.1 0 1.6.894 3.5.894s3.5-.894 3.5-.894c.1-.1.2-.198.2-.298 0-.099 0-.298-.1-.397Zm-3.7.596c-1.7 0-3-.795-3-.795-.1 0-1.6-.893-3.5-.893-1.1 0-2.1.298-2.8.596V1.688c.5-.199 1.5-.695 2.8-.695 1.7 0 3 .794 3 .794.1 0 1.6.894 3.5.894.9 0 1.6-.199 2.2-.397l-1.3 2.68c-.1.2-.1.398 0 .497l1.5 2.184c-.4.199-1.3.497-2.4.497Z"/>
</svg>
