<svg xmlns="http://www.w3.org/2000/svg" fill="none" viewBox="0 0 14 14">
  <path fill="#5A7197" d="M7.31 9.312A2.225 2.225 0 0 1 5.087 7.09c0-1.226.997-2.223 2.223-2.223 1.225 0 2.222.997 2.222 2.223A2.225 2.225 0 0 1 7.31 9.312ZM3.23 13.18a1.22 1.22 0 0 1-1.22-1.22 1.22 1.22 0 0 1 2.439 0 1.22 1.22 0 0 1-1.219 1.22ZM.936 2.283c0-.806.656-1.463 1.462-1.463.807 0 1.463.657 1.463 1.463 0 .807-.656 1.463-1.463 1.463A1.464 1.464 0 0 1 .936 2.283Zm11.268 1.012a.862.862 0 1 1-.002 1.724.862.862 0 0 1 .002-1.724Zm-1.216 2.021c.307.321.738.522 1.216.522.927 0 1.681-.755 1.681-1.682 0-.927-.754-1.681-1.681-1.681A1.683 1.683 0 0 0 10.582 4.6l-.891.597a3.039 3.039 0 0 0-4.28-.484l-1.204-1.04a2.27 2.27 0 0 0 .474-1.39A2.286 2.286 0 0 0 2.398 0 2.286 2.286 0 0 0 .115 2.283a2.286 2.286 0 0 0 2.283 2.283c.438 0 .848-.124 1.195-.339L4.844 5.31a3.026 3.026 0 0 0-.577 1.781c0 .765.284 1.465.751 2l-.837 1.067A2.042 2.042 0 0 0 1.19 11.96c0 1.125.915 2.04 2.04 2.04s2.04-.915 2.04-2.04c0-.485-.171-.93-.455-1.281l.822-1.049c.48.318 1.055.503 1.673.503a3.046 3.046 0 0 0 2.802-4.23l.876-.587Z"/>
</svg>
