<svg xmlns="http://www.w3.org/2000/svg" viewBox="0 0 32 32">
    <path d="M31.71 19.726c-.897-1.25-1.81-1.316-3.977-.217v1.575a1.61 1.61 0 0 1-.765 1.365l-3.053 1.866-.028.015c-.828.442-1.99.67-3.768.741l-3.197.002A1.602 1.602 0 0 1 15.419 24h-4.218c-1.6 0-1.6.803-1.6 1.067a.533.533 0 1 1-1.067 0c0-1.336.997-2.133 2.667-2.133h4.22a1.605 1.605 0 0 1 1.453-1.06h.002a2.546 2.546 0 0 0-1.613-.555h-2.08c-1.59 0-3.13-.502-4.339-1.412-.053-.04-.21-.158-.6-.158-.148 0-.315.017-.499.049a1.604 1.604 0 0 1-1.878-1.575v-.08c-.836.334-1.588.765-2.133 1.111v-1.12H.001V32h3.733v-1.6h6.933c1.09 0 2.188-.083 3.262-.247l6.913-1.05c.252-.003.507-.034.734-.085.636-.09 1.245-.393 1.761-.88l8.084-6.295.012-.01c.63-.521.751-1.447.277-2.107Zm-29.042.279v10.928h-1.6V19.2h1.6v.805Zm11.199-9.871a1.068 1.068 0 0 0 0-2.133 1.068 1.068 0 0 0 0 2.133Zm6.4 4.266a1.068 1.068 0 0 0 0 2.134 1.068 1.068 0 0 0 0-2.133Z"/>
    <path d="M4.735 10.668h2.2v7.554a.536.536 0 0 0 .625.525c.828-.146 1.458-.046 1.925.308 1.025.772 2.338 1.197 3.698 1.197h2.08c1.209 0 2.31.568 2.947 1.518.22.329.31.603.243.734-.102.197-.619.408-1.548.435a.533.533 0 0 0 .016 1.067h3.156c1.585-.063 2.628-.254 3.308-.617l3.027-1.85a.535.535 0 0 0 .255-.455V10.668H28.8a.535.535 0 0 0 .358-.93L19.58 1.077a4.215 4.215 0 0 0-5.629.002l-9.575 8.66a.533.533 0 0 0 .358.93ZM20.267 17.6a2.135 2.135 0 0 1-2.133-2.134c0-1.176.956-2.133 2.133-2.133s2.133.957 2.133 2.133a2.135 2.135 0 0 1-2.133 2.133Zm-6.4-10.667c1.177 0 2.133.957 2.133 2.133a2.135 2.135 0 0 1-2.133 2.134 2.135 2.135 0 0 1-2.133-2.134c0-1.176.957-2.133 2.133-2.133ZM11.89 16.69l9.6-9.6a.533.533 0 1 1 .754.755l-9.6 9.6a.532.532 0 0 1-.754 0 .533.533 0 0 1 0-.755Z"/>
</svg>
