<svg width="32" height="32" viewBox="0 0 32 32" xmlns="http://www.w3.org/2000/svg">
<path d="M4 15.1543C6.20914 15.1543 8 13.2696 8 10.9448C8 8.61991 6.20914 6.73523 4 6.73523C1.79086 6.73523 0 8.61991 0 10.9448C0 13.2696 1.79086 15.1543 4 15.1543Z"/>
<path d="M11.2 8.41909C13.4092 8.41909 15.2 6.53442 15.2 4.20955C15.2 1.88468 13.4092 0 11.2 0C8.99087 0 7.20001 1.88468 7.20001 4.20955C7.20001 6.53442 8.99087 8.41909 11.2 8.41909Z"/>
<path d="M20.8 8.41909C23.0091 8.41909 24.8 6.53442 24.8 4.20955C24.8 1.88468 23.0091 0 20.8 0C18.5908 0 16.8 1.88468 16.8 4.20955C16.8 6.53442 18.5908 8.41909 20.8 8.41909Z"/>
<path d="M28 15.1543C30.2091 15.1543 32 13.2696 32 10.9448C32 8.61991 30.2091 6.73523 28 6.73523C25.7909 6.73523 24 8.61991 24 10.9448C24 13.2696 25.7909 15.1543 28 15.1543Z"/>
<path d="M24.544 19.9701C23.152 18.2526 21.984 16.7877 20.576 15.0702C19.84 14.1609 18.896 13.2517 17.776 12.8476C17.6 12.7802 17.424 12.7297 17.248 12.696C16.848 12.6287 16.416 12.6287 16 12.6287C15.584 12.6287 15.152 12.6287 14.736 12.7129C14.56 12.7465 14.384 12.797 14.208 12.8644C13.088 13.2685 12.16 14.1778 11.408 15.087C10.016 16.8045 8.84802 18.2695 7.44002 19.9869C5.34402 22.1928 2.76802 24.6343 3.24802 28.0524C3.71202 29.7699 4.88002 31.4706 6.97602 31.9589C8.14402 32.2115 11.872 31.218 15.84 31.218H16.128C20.096 31.218 23.824 32.1946 24.992 31.9589C27.088 31.4706 28.256 29.7531 28.72 28.0524C29.216 24.6175 26.64 22.1759 24.544 19.9701Z"/>
</svg>
