<svg xmlns="http://www.w3.org/2000/svg" viewBox="0 0 32 32">
    <path d="M26.223 1.622c-2.005-2.162-5.025-2.162-7.03 0-1.756 1.896-2.733 5.197-2.489 8.408.04.52.076 1.058.111 1.604.155 2.396.27 4.975.367 7.188.068 1.521.128 2.872.188 3.874.018.3.031.634.044.993.112 2.938.3 7.74 3.959 8.258v-2.77c-1.176-.495-2.002-2.266-2.002-4.519 0-2.346.892-4.18 2.145-4.584l.078-1.422h-.888a.668.668 0 0 1 0-1.334h.963l.075-1.335h-1.037a.668.668 0 0 1 0-1.334h1.112l.076-1.367c.192.012.396.036.578.036l.257-.004c.156-.005.327-.019.5-.032l-.075 1.368h.888a.668.668 0 0 1 0 1.335h-.963l-.075 1.334h1.037a.668.668 0 0 1 0 1.335H22.93l-.087 1.557c1.102.573 1.866 2.284 1.866 4.449 0 2.254-.826 4.025-2.002 4.519V32c2.704 0 4.275-3.354 4.67-9.97.079-1.313.315-3.148.565-5.091.215-1.671.447-3.478.623-5.26v-.002a73.49 73.49 0 0 0 .145-1.647c.247-3.213-.73-6.512-2.487-8.408Zm1.16 8.305c-.03.388-.063.78-.1 1.176-.098.029-.193.06-.297.09a25.198 25.198 0 0 1-2.302.538c-.19.034-.374.063-.557.092-.203.031-.4.06-.59.082-.301.036-.597.068-.85.076l-.215.001c-.157 0-.335-.02-.504-.03v-.002a10.818 10.818 0 0 1-.961-.104l-.005-.001a14.47 14.47 0 0 1-.942-.182c-.09-.02-.18-.043-.27-.064a18.46 18.46 0 0 1-.75-.2c-.174-.05-.35-.108-.527-.166a17.25 17.25 0 0 1-.394-.133c-.027-.4-.055-.791-.084-1.174-.215-2.814.645-5.787 2.138-7.398C21.681.9 23.736.9 25.245 2.528c1.493 1.612 2.351 4.584 2.138 7.399ZM5.777 1.622C4.022 3.518 3.045 6.819 3.289 10.03c.041.543.09 1.094.145 1.647.177 1.783.409 3.59.624 5.26.25 1.944.487 3.779.564 5.092.395 6.616 1.966 9.97 4.67 9.97v-2.822c-1.176-.495-2.002-2.266-2.002-4.519 0-2.165.765-3.875 1.866-4.448l-.087-1.556H7.957a.668.668 0 0 1 0-1.335h1.037l-.074-1.334h-.964a.668.668 0 0 1 0-1.335h.889l-.076-1.368c.172.015.343.028.5.032l.258.003c.181 0 .385-.024.578-.036l.076 1.366h1.111a.668.668 0 0 1 0 1.335h-1.037l.075 1.335h.964a.668.668 0 0 1 0 1.334h-.89l.08 1.422c1.253.404 2.144 2.238 2.144 4.584 0 2.254-.826 4.025-2.002 4.519v2.77c3.661-.519 3.848-5.32 3.959-8.258.013-.36.027-.694.044-.993.06-1.002.12-2.353.188-3.874.099-2.214.214-4.793.367-7.188.035-.546.072-1.085.111-1.605.244-3.21-.733-6.511-2.489-8.408-2.005-2.16-5.025-2.16-7.03.002Zm8.19 8.305c-.03.383-.057.775-.084 1.174-.132.046-.263.091-.394.134-.177.056-.352.115-.527.165a18.625 18.625 0 0 1-1.02.264c-.322.071-.639.134-.942.182l-.005.001c-.334.051-.655.086-.961.103v.003c-.168.012-.346.03-.504.03l-.215-.002a10.19 10.19 0 0 1-.85-.076 24.388 24.388 0 0 1-1.147-.176c-.204-.036-.41-.078-.615-.122-.195-.04-.389-.084-.58-.127a25.12 25.12 0 0 1-1.107-.288c-.104-.03-.2-.061-.296-.09a62.69 62.69 0 0 1-.1-1.175c-.215-2.815.644-5.787 2.137-7.4 1.509-1.626 3.564-1.626 5.072 0 1.493 1.613 2.352 4.585 2.138 7.4Z"/>
</svg>
