<svg width="32" height="32" viewBox="0 0 32 32" xmlns="http://www.w3.org/2000/svg">
<path d="M17.6746 4.1798C18.1183 4.42516 18.4749 4.8392 18.577 4.96507C18.6117 5.00916 18.6355 5.06156 18.6464 5.11587C18.794 5.95545 19.0424 6.32476 19.2003 6.48131C20.4258 5.03983 20.415 1.91536 20.3952 1.21379L19.7229 0.657898C19.7481 2.09235 18.5729 3.39517 17.6746 4.1798Z"/>
<path d="M13.8053 3.98063C12.6839 3.21836 12.1027 1.71426 11.8516 0.859985L11.1834 1.44718C11.1698 2.06633 11.1943 4.18956 11.9768 5.87193C12.3382 5.24192 12.9785 4.32566 13.8053 3.98063Z"/>
<path d="M18.811 1.56735C18.9921 1.10986 19.0553 0.629368 18.9158 0.150154C18.1156 0.0555886 17.3249 0 16.5593 0C14.5206 0 13.1412 0.332255 12.5097 0.525858C12.5948 0.840861 12.7438 1.29771 12.9615 1.7699C13.7026 1.58396 15.7618 1.19165 18.811 1.56735Z"/>
<path d="M16.7103 4.04904C16.7206 4.0452 16.728 4.04073 16.741 4.0369C17.2248 3.65864 17.9774 2.99668 18.4789 2.21333C15.8686 1.92133 14.0496 2.22036 13.2916 2.39415C13.5774 2.85995 13.9374 3.28549 14.3987 3.53276C14.4225 3.5449 14.7818 3.71614 15.0554 3.95128C15.3024 4.05607 15.6086 4.2944 15.7386 4.6931C15.8917 4.56914 16.0748 4.45733 16.2939 4.36596C16.3327 4.33848 16.4164 4.2797 16.5287 4.19727C16.5681 4.13274 16.6294 4.07971 16.7103 4.04904Z"/>
<path d="M16.3157 13.2985C16.2293 12.3931 15.8414 8.10892 16.0394 5.38507C15.7441 5.72499 15.6924 6.09686 15.6924 6.10261L15.6645 6.28088V6.28152C15.6645 6.28983 15.6699 6.29558 15.6699 6.30261V13.5764C15.8584 13.5458 16.0993 13.4704 16.3157 13.2985Z"/>
<path d="M31.9397 11.5465L28.1065 6.1167C26.4733 4.10528 25.3431 3.69891 25.3356 3.69891L21.1261 1.65234C21.122 2.92258 20.9478 5.82342 19.5242 7.16011C19.4555 7.22337 19.3649 7.25915 19.269 7.25915C19.2465 7.25915 19.2282 7.25787 19.2071 7.25531C19.0512 7.22848 18.27 7.0189 17.9454 5.31354C17.6705 4.99662 17.2786 4.69503 17.0628 4.67203C16.9635 4.74551 16.8812 4.80493 16.8172 4.84902C16.479 7.6553 17.0458 13.3394 17.0526 13.3969C17.0622 13.4928 17.0275 13.5886 16.9594 13.6602C16.4103 14.2167 15.6896 14.28 15.4011 14.28C15.3256 14.28 15.2786 14.2761 15.2698 14.2742C15.084 14.2563 14.9438 14.1113 14.9438 13.9368V6.30264C14.9438 6.28922 14.952 6.27644 14.9533 6.26238C14.9506 6.24322 14.9424 6.22468 14.9452 6.2036L14.9969 5.53334C14.9982 5.50842 15.0037 5.48286 15.0105 5.45986C15.2255 4.78257 14.822 4.59727 14.7356 4.56469C13.4876 4.17237 12.3355 6.74032 12.3232 6.76588C12.2715 6.886 12.1531 6.96779 12.0163 6.97801C11.8782 6.99015 11.7475 6.9237 11.6775 6.81316C10.6819 5.25028 10.4866 3.13663 10.4573 2.00824L6.70375 3.68166C6.65884 3.69891 5.52718 4.10336 3.87835 6.13715L0.0601232 11.5465C-0.0405893 11.6903 -0.012689 11.8832 0.128173 11.9951L5.07738 15.9125C5.22504 16.0268 5.4428 16.016 5.57686 15.885L6.1124 15.3502C6.05388 15.2972 6.01033 15.2288 5.99944 15.1477C5.56053 11.9887 5.98243 9.56129 6.0008 9.45778C6.03415 9.27313 6.22128 9.14533 6.4193 9.1792C6.6146 9.20987 6.75002 9.38622 6.716 9.57152C6.71191 9.59516 6.29341 12.0066 6.71872 15.0595C6.72552 15.1144 6.716 15.1649 6.69762 15.2128C6.78132 17.4242 6.92899 22.6426 6.92899 31.2192C6.92899 31.3917 7.06441 31.5374 7.2495 31.5585C7.28829 31.563 11.2113 32 15.1201 32C15.3848 32 15.6461 31.9975 15.9053 31.9936H16.0891C16.3511 31.9975 16.6151 32 16.8778 32C20.7892 32 24.7136 31.5623 24.7537 31.5585C24.9348 31.5374 25.0715 31.3911 25.0715 31.2192C25.0715 22.5339 25.2267 17.2939 25.3056 15.1323C25.3056 15.1157 25.2988 15.1004 25.3015 15.0831C25.3056 15.055 25.309 15.0301 25.3118 15.002C25.3158 14.9272 25.3172 14.8467 25.3199 14.7815L25.3349 14.7962C25.6724 11.8283 25.309 9.59132 25.3029 9.56768C25.2723 9.38175 25.4077 9.20795 25.6071 9.17856C25.8037 9.14981 25.9895 9.27632 26.0195 9.46098C26.0365 9.56193 26.4305 11.9599 26.0208 15.1636C26.0072 15.2454 25.9691 15.3176 25.9092 15.3694L26.4237 15.8844C26.5536 16.0153 26.7728 16.0268 26.9204 15.9118L31.871 11.9944C32.0112 11.8839 32.0418 11.6903 31.9397 11.5465Z"/>
</svg>
