<svg width="32" height="32" viewBox="0 0 32 32" xmlns="http://www.w3.org/2000/svg">
<path d="M14.7696 15.308V26.4613C14.7696 27.1025 14.5196 27.6728 14.0197 28.1729C13.5198 28.6729 12.949 28.923 12.3083 28.923C11.6675 28.923 11.097 28.6729 10.5968 28.1729C10.0968 27.6728 9.847 27.1025 9.847 26.4613C9.847 26.128 9.72516 25.8396 9.48154 25.596C9.23778 25.3525 8.94957 25.2306 8.61603 25.2306C8.28263 25.2306 7.99415 25.3525 7.75046 25.596C7.50698 25.8396 7.38513 26.1279 7.38513 26.4613C7.38513 27.7945 7.87224 28.9481 8.84659 29.9227C9.82087 30.8975 10.9749 31.3838 12.3082 31.3838C13.6413 31.3838 14.7953 30.8974 15.7695 29.9227C16.7438 28.9481 17.231 27.7945 17.231 26.4613V15.308C16.8078 15.167 16.3976 15.0965 16.0002 15.0965C15.603 15.0965 15.1925 15.167 14.7696 15.308Z"/>
<path d="M17.2311 3.7315V1.84706C17.2311 1.51379 17.109 1.22504 16.8655 0.981554C16.6221 0.737933 16.3336 0.616089 16.0002 0.616089C15.6669 0.616089 15.3786 0.737933 15.1349 0.981554C14.8912 1.22531 14.7695 1.51379 14.7695 1.84706V3.7315C15.3078 3.70604 15.7182 3.69304 16.0002 3.69304C16.2822 3.69304 16.6926 3.70604 17.2311 3.7315Z"/>
<path d="M31.9799 15.6928C31.5567 13.9238 30.8162 12.3116 29.7588 10.8565C28.7006 9.40139 27.4541 8.20255 26.0181 7.2604C24.5826 6.31811 23.0025 5.59068 21.2782 5.07785C19.554 4.56488 17.7944 4.30859 15.9995 4.30859C13.5636 4.30859 11.253 4.74458 9.06706 5.61621C6.88114 6.48791 4.97097 7.79876 3.33654 9.5487C1.70191 11.2986 0.596088 13.3468 0.0193307 15.6928C0.00633133 15.7183 0 15.7634 0 15.8273C0 15.994 0.0608211 16.1384 0.182665 16.26C0.30451 16.3817 0.448648 16.4426 0.615284 16.4426C0.756459 16.4426 0.903763 16.3787 1.0576 16.2503C1.68568 15.6607 2.2819 15.2184 2.846 14.9236C3.41023 14.6288 4.06404 14.4812 4.8075 14.4812C5.67933 14.4812 6.49978 14.7186 7.26897 15.1929C8.03822 15.667 8.69863 16.289 9.24973 17.0578C9.33958 17.1863 9.45179 17.3659 9.58637 17.5959C9.72108 17.8274 9.81409 17.9811 9.86528 18.0578C10.0063 18.2756 10.1859 18.3849 10.4037 18.3849C10.6345 18.3849 10.8204 18.2756 10.9614 18.0578C11.0127 17.9811 11.1057 17.8273 11.2402 17.5959C11.3749 17.3659 11.4871 17.1863 11.5768 17.0578C12.1279 16.2893 12.785 15.667 13.5479 15.1929C14.3107 14.7186 15.128 14.4812 15.9997 14.4812C16.8715 14.4812 17.6888 14.7183 18.4518 15.1929C19.2145 15.667 19.8716 16.289 20.4226 17.0578C20.5129 17.1863 20.6247 17.3659 20.7595 17.5959C20.8942 17.8274 20.9873 17.9811 21.0389 18.0578C21.1795 18.2756 21.3653 18.3849 21.5962 18.3849C21.8142 18.3849 21.9935 18.2756 22.1342 18.0578C22.1858 17.9811 22.2789 17.8273 22.4135 17.5959C22.5483 17.3659 22.6601 17.1863 22.7505 17.0578C23.3018 16.2893 23.962 15.667 24.7309 15.1929C25.5004 14.7184 26.321 14.4812 27.1928 14.4812C27.9364 14.4812 28.59 14.6287 29.1543 14.9235C29.7183 15.2183 30.3142 15.6606 30.9425 16.2503C31.0964 16.3788 31.244 16.4425 31.3851 16.4425C31.5515 16.4425 31.696 16.3817 31.8175 16.2599C31.9392 16.138 32 15.9942 32 15.8273C31.9995 15.7632 31.9935 15.7183 31.9799 15.6928Z"/>
</svg>
