<svg xmlns="http://www.w3.org/2000/svg" fill="none" viewBox="0 0 200 50">
  <path fill="#fff" d="M54.6982 15.3018V5.66168h-4.8276V4.4397h10.8621v1.22198h-4.8125v9.64012h-1.222Zm10.1649 0V4.45478h9.0517c.503 0 .9304.18104 1.2823.54311.3522.352.528.77441.528 1.26724v3.18319c0 .49282-.1758.92028-.528 1.28228-.3519.352-.7793.5281-1.2823.5281h-1.6595l3.4095 4.028v.0151h-1.6142l-3.3944-4.0431-4.5712-.0151v4.0582h-1.2219Zm1.8103-5.2802h7.2414c.161 0 .2968-.05533.4073-.16596.1108-.11062.166-.2464.166-.40732V6.26513c0-.16093-.0552-.2967-.166-.40733-.1105-.12069-.2463-.18103-.4073-.18103h-7.2414c-.1608 0-.3017.06034-.4224.18103-.1106.11063-.166.2464-.166.40733v3.18319c0 .16092.0554.2967.166.40732.1207.11063.2616.16596.4224.16596Zm15.4513 5.2802c-.5028 0-.9304-.1761-1.2823-.5281-.352-.352-.528-.7794-.528-1.2823V4.4397h1.2219v9.0517c0 .1609.0554.3017.166.4224.1207.1107.2614.166.4224.166h7.2414c.161 0 .2967-.0553.4073-.166.1207-.1207.181-.2615.181-.4224V4.4397h1.222v9.0517c0 .5029-.1761.9303-.528 1.2823s-.7795.5281-1.2823.5281h-7.2414Zm15.4653 0c-.503 0-.9304-.1761-1.2823-.5281-.3522-.352-.528-.7794-.528-1.2823v-.4224h1.2219v.4224c0 .1609.0552.3017.166.4224.1207.1107.2614.166.4224.166h7.241c.161 0 .297-.0553.408-.166.12-.1207.181-.2615.181-.4224v-2.4289c0-.1609-.061-.2967-.181-.4073-.111-.1106-.247-.1659-.408-.1659H97.59c-.503 0-.9304-.176-1.2823-.52805-.3522-.36207-.528-.78951-.528-1.28233V6.25004c0-.50286.1758-.93032.528-1.28233.3519-.352.7793-.52801 1.2823-.52801h7.241c.503 0 .931.17601 1.283.52801.352.35201.528.77947.528 1.28233v.42241h-1.222v-.42241c0-.16093-.061-.2967-.181-.40733-.111-.12069-.247-.18103-.408-.18103H97.59c-.161 0-.3017.06034-.4224.18103-.1108.11063-.166.2464-.166.40733v2.42888c0 .16093.0552.2967.166.40733.1207.11062.2614.16595.4224.16595h7.241c.503 0 .931.18103 1.283.5431.352.352.528.7744.528 1.2672v2.4289c0 .5029-.176.9303-.528 1.2823-.352.352-.78.5281-1.283.5281H97.59Zm17.972 0V5.66168h-4.828V4.4397h10.862v1.22198h-4.812v9.64012h-1.222ZM50.8523 44.8275V29.3103h2.3922l11.3793 13.5345V29.3103h1.7457v15.5172h-2.3922L52.598 31.2931v13.5344h-1.7457Zm17.975 0v-12.931c0-.7183.2513-1.3291.7543-1.8319.5028-.5028 1.1134-.7543 1.8319-.7543h10.3448c.7184 0 1.3289.2515 1.8319.7543.5028.5028.7543 1.1136.7543 1.8319v12.931h-1.7457v-5.6681H70.573v5.6681h-1.7457Zm1.7457-7.4137h12.0258v-5.5173c0-.2299-.0862-.4239-.2586-.5819-.1582-.1724-.3521-.2586-.5819-.2586H71.4135c-.23 0-.431.0862-.6034.2586-.1582.158-.2371.352-.2371.5819v5.5173Zm24.7614 7.4137-8.9871-15.5172h2.0475l7.9525 13.8147 7.9307-13.8147h2.048l-8.9657 15.5172h-2.0259Zm12.9946 0V29.3103h1.767v15.5172h-1.767Zm7.281 0c-.718 0-1.329-.2515-1.832-.7543-.502-.5028-.754-1.1135-.754-1.8319V31.8965c0-.7183.252-1.3291.754-1.8319.503-.5028 1.114-.7543 1.832-.7543h10.345c.718 0 1.329.2515 1.832.7543.503.5028.754 1.1136.754 1.8319v.625h-1.745v-.625c0-.2299-.087-.4239-.259-.5819-.158-.1724-.352-.2586-.582-.2586H115.61c-.23 0-.431.0862-.603.2586-.158.158-.237.352-.237.5819v10.3448c0 .23.079.4311.237.6035.172.158.373.2371.603.2371h10.345c.23 0 .424-.0791.582-.2371.172-.1724.259-.3735.259-.6035v-3.8362h-3.837v-1.7672h5.582v5.6034c0 .7184-.251 1.3291-.754 1.8319-.503.5028-1.114.7543-1.832.7543H115.61Zm15.347 0v-12.931c0-.7183.251-1.3291.754-1.8319.503-.5028 1.114-.7543 1.832-.7543h10.345c.718 0 1.329.2515 1.832.7543.503.5028.754 1.1136.754 1.8319v12.931h-1.746v-5.6681h-12.025v5.6681h-1.746Zm1.746-7.4137h12.025v-5.5173c0-.2299-.086-.4239-.258-.5819-.158-.1724-.352-.2586-.582-.2586h-10.345c-.23 0-.431.0862-.603.2586-.158.158-.237.352-.237.5819v5.5173Zm22.347 7.4137V31.056h-6.896v-1.7457h15.517v1.7457h-6.875v13.7715h-1.746Zm12.776 0c-.719 0-1.329-.2515-1.832-.7543-.503-.5028-.754-1.1135-.754-1.8319V31.8965c0-.7183.251-1.3291.754-1.8319.503-.5028 1.113-.7543 1.832-.7543h10.345c.718 0 1.329.2515 1.832.7543.503.5028.754 1.1136.754 1.8319v10.3448c0 .7184-.251 1.3291-.754 1.8319-.503.5028-1.114.7543-1.832.7543h-10.345Zm0-1.7456h10.345c.23 0 .424-.0791.582-.2371.172-.1724.258-.3735.258-.6035V31.8965c0-.2299-.086-.4239-.258-.5819-.158-.1724-.352-.2586-.582-.2586h-10.345c-.23 0-.431.0862-.603.2586-.159.158-.238.352-.238.5819v10.3448c0 .23.079.4311.238.6035.172.158.373.2371.603.2371Zm15.283 1.7456V29.3319h12.931c.718 0 1.329.2586 1.832.7758.502.5028.754 1.1063.754 1.8104v4.5474c0 .7041-.252 1.3146-.754 1.8319-.503.5028-1.114.7543-1.832.7543h-2.371l4.871 5.7543v.0215h-2.306l-4.849-5.7758-6.531-.0216v5.7974h-1.745Zm2.586-7.5431h10.345c.23 0 .424-.0791.582-.237.158-.158.237-.352.237-.5819v-4.5474c0-.23-.079-.424-.237-.5819-.158-.1725-.352-.2587-.582-.2587h-10.345c-.23 0-.431.0862-.603.2587-.158.1579-.238.3519-.238.5819v4.5474c0 .2299.08.4239.238.5819.172.1579.373.237.603.237ZM0 4.3103h43.1034v15.5172h-8.4051v-6.25h-7.5431v12.069l-11.2069-12.069H8.40517v6.25H0V4.3103Zm34.6984 40.5174H8.40527v-9.2673h7.54313V23.4915l11.2069 12.0689h7.5431v9.2673Z"/>
</svg>
