<svg width="0" height="0" style="position:absolute"><symbol viewBox="0 0 32 32" id="airplane" xmlns="http://www.w3.org/2000/svg"><path d="M25.142 30.952l2.514-2.514-4.4-16.97 6.914-6.914a2.663 2.663 0 000-3.771 2.663 2.663 0 00-3.771 0l-6.914 6.913-16.97-4.4L0 5.812l13.828 7.542-6.914 6.914-5.028-1.257L0 20.896l6.285 3.771 3.772 6.285 1.885-1.885-1.257-5.029 6.914-6.913 7.543 13.827z"/></symbol><symbol viewBox="0 0 14 14" id="arrow-back" xmlns="http://www.w3.org/2000/svg"><path d="M9.652 12.305a.41.41 0 01-.29-.12L4.307 7.129a.41.41 0 010-.58l5.055-5.056a.41.41 0 11.58.58L5.177 6.839l4.765 4.765a.41.41 0 01-.29.7z"/></symbol><symbol viewBox="0 0 16 16" id="arrow-forward" xmlns="http://www.w3.org/2000/svg"><path d="M3.2 14.584L4.616 16l8-8-8-8L3.2 1.416 9.784 8 3.2 14.584z"/></symbol><symbol viewBox="0 0 32 32" id="bank" xmlns="http://www.w3.org/2000/svg"><path d="M9.333 13.333h-4v9.334h4v-9.334zM18 13.333h-4v9.334h4v-9.334zM29.333 25.333H2.667v4h26.666v-4zM26.667 13.333h-4v9.334h4v-9.334zM16 1.333L2.667 8v2.667h26.666V8L16 1.333z"/></symbol><symbol viewBox="0 0 32 32" id="bedroom" xmlns="http://www.w3.org/2000/svg"><path d="M14.958 8.988H7.022v6.365h7.936V8.988zm10.02 0h-7.936v6.365h7.936V8.988zm2.087 9.006H0v8.412h4.82V29h2.087v-2.594h18.186V29h2.087v-2.594H32v-8.412h-4.935z"/><path d="M1.948 3v12.352h2.987V6.346h22.13v9.006h2.987V3H1.948z"/></symbol><symbol viewBox="0 0 32 32" id="bicycle" xmlns="http://www.w3.org/2000/svg"><path d="M25.956 14.933c-.71 0-1.39.124-2.022.35l-3.405-6.039h3.507V4.978h-2.134V7.11h-5.026l2.593 4.598h-7.495l-1.397-2.465h1.867V7.111h-6.4v2.133h2.081l1.793 3.165-1.74 2.914a6.013 6.013 0 00-2.134-.39A6.051 6.051 0 000 20.978a6.051 6.051 0 006.044 6.044c2.97 0 5.443-2.152 5.949-4.977h1.37A2.849 2.849 0 0016 23.822a2.848 2.848 0 002.844-2.844 2.848 2.848 0 00-3.216-2.82l-2.446-4.316h7.49l1.41 2.5a6.034 6.034 0 00-2.17 4.636 6.051 6.051 0 006.044 6.044A6.051 6.051 0 0032 20.978a6.051 6.051 0 00-6.044-6.045zM6.044 22.044a1.067 1.067 0 110-2.133 1.067 1.067 0 010 2.133zm7.729-2.833a2.85 2.85 0 00-.41.7h-1.37a6.042 6.042 0 00-1.985-3.491l1.12-1.876 2.645 4.667zm12.183 2.834a1.067 1.067 0 110-2.134 1.067 1.067 0 010 2.133z"/></symbol><symbol viewBox="0 0 32 32" id="blazer" xmlns="http://www.w3.org/2000/svg"><path d="M12.384 3.266l-5.002 1.84a.361.361 0 00-.213.222L.026 24.852c-.072.195.01.413.185.496l4.14 1.954a.32.32 0 00.271.002.372.372 0 00.19-.214l3.512-9.773c-.017 2.384-.014 6.649.131 11.985.007.2.154.363.336.372l5.865.23c.052 0 .317-.007.607-.135 0-.406.009-1.03.012-1.268v-3.14c0-.037.03-3.237.137-6.998l.09-.454-2.631-15.18-.487.537zm2.085 19.895c0 .212-.155.384-.349.384h-3.568c-.192 0-.349-.172-.349-.384 0-.211.157-.383.35-.383h3.567c.194-.001.35.171.35.384zM15.665 2c-1.037 0-1.743.18-2.154.328l2.368 13.679L18.59 2.4c-1.047-.261-2.03-.4-2.924-.4zm16.311 23.202L24.93 5.332a.373.373 0 00-.216-.226l-5.005-1.84-.477-.525-3.028 15.178a.405.405 0 01-.053.257l-.056.284a477.58 477.58 0 00-.127 6.907v3.143a88.732 88.732 0 00-.012 1.415.85.85 0 00.34.075h.028l6.951-.666c.184-.016.324-.19.317-.394-.17-5.354-.226-9.495-.243-11.78l3.754 10.15c.071.196.27.29.45.215l4.225-1.823c.18-.08.267-.3.197-.5zm-10.892-1.658h-3.57c-.192 0-.347-.171-.347-.383s.155-.384.347-.384h3.57c.192 0 .346.172.346.384.002.212-.154.383-.346.383z"/></symbol><symbol viewBox="0 0 32 32" id="bolt" xmlns="http://www.w3.org/2000/svg"><path d="M14.126 32H12.26l1.866-12.444H7.593c-1.083 0-1.064-.57-.71-1.174.355-.604.094-.142.131-.213C9.422 14.116 13.044 8.07 17.86 0h1.867L17.86 12.444h6.533c.915 0 1.046.587.878.907l-.131.267A8397.978 8397.978 0 0014.126 32z"/></symbol><symbol viewBox="0 0 32 32" id="car" xmlns="http://www.w3.org/2000/svg"><path d="M28.302 3.129a2.656 2.656 0 00-2.524-1.796H6.222A2.673 2.673 0 003.698 3.13L0 13.778V28c0 .978.8 1.778 1.778 1.778h1.778c.977 0 1.777-.8 1.777-1.778v-1.778h21.334V28c0 .978.8 1.778 1.777 1.778h1.778c.978 0 1.778-.8 1.778-1.778V13.778l-3.698-10.65zm-22.08 17.76a2.663 2.663 0 01-2.666-2.667 2.663 2.663 0 012.666-2.667 2.663 2.663 0 012.667 2.667 2.663 2.663 0 01-2.667 2.667zm19.556 0a2.663 2.663 0 01-2.667-2.667 2.663 2.663 0 012.667-2.667 2.663 2.663 0 012.666 2.667 2.663 2.663 0 01-2.666 2.667zM3.556 12l2.666-8h19.556l2.666 8H3.556z"/></symbol><symbol viewBox="0 0 32 32" id="chair" xmlns="http://www.w3.org/2000/svg"><path d="M8.727 14.578v2.844h14.546v-2.844c0-2.646 1.862-4.85 4.363-5.49V7.467c0-2.347-1.963-4.267-4.363-4.267H8.727c-2.4 0-4.363 1.92-4.363 4.267v1.621c2.501.64 4.363 2.845 4.363 5.49z"/><path d="M29.09 11.733c-1.6 0-2.908 1.28-2.908 2.845v5.689H5.818v-5.69c0-1.564-1.309-2.844-2.909-2.844-1.6 0-2.909 1.28-2.909 2.845v7.11c0 2.348 1.964 4.268 4.364 4.268v1.422c0 .782.654 1.422 1.454 1.422.8 0 1.455-.64 1.455-1.422v-1.422h17.454v1.422c0 .782.655 1.422 1.455 1.422s1.454-.64 1.454-1.422v-1.422c2.4 0 4.364-1.92 4.364-4.267v-7.111c0-1.565-1.31-2.845-2.91-2.845z"/></symbol><symbol viewBox="0 0 32 32" id="cosmetics" xmlns="http://www.w3.org/2000/svg"><path d="M4.733 29.1c0 .6.487 1.087 1.086 1.087h2.75c.6 0 1.086-.487 1.086-1.086v-2.432H4.733v2.432zm-2.181-4.745c0 .397.166.756.431 1.012a1.4 1.4 0 00.975.394h6.472a1.4 1.4 0 00.975-.394c.265-.256.431-.614.431-1.012L13.64 8.769 1.882 18.561l.67 5.794zM12.982.896H1.406C.63.896 0 1.526 0 2.302l1.63 14.08L13.946 6.126l.442-3.824c0-.777-.63-1.406-1.406-1.406zm14.111 12.561c0-.755-.615-1.37-1.37-1.37h-3.381c-.755 0-1.37.615-1.37 1.37v3.097h6.12v-3.097zm1.833 4.048a3.594 3.594 0 00-.489-.034h-8.81a3.562 3.562 0 00-3.562 3.563v6.508a3.562 3.562 0 003.562 3.562h8.81A3.562 3.562 0 0032 27.542v-6.508a3.563 3.563 0 00-3.074-3.529zM24.032 27.1a2.813 2.813 0 110-5.625 2.813 2.813 0 010 5.625z"/></symbol><symbol viewBox="0 0 32 32" id="diamond" xmlns="http://www.w3.org/2000/svg"><path d="M16.262 3.692h-.525l-4.316 8.616h9.157l-4.316-8.616zM23.319 12.308h8.468l-4.3-8.616H19.02l4.299 8.616zM31.393 14.77H17.23v16.984l14.162-16.985zM14.77 31.754V14.769H.606L14.77 31.754zM8.681 12.308l4.3-8.616H4.512l-4.3 8.616h8.468z"/></symbol><symbol viewBox="0 0 32 32" id="dress" xmlns="http://www.w3.org/2000/svg"><path d="M10.537 5.697a.366.366 0 00.027.196c.003.005.272.635.48 2.268l.386 2.56c-.066.206-.214.753-.256 1.593l-.91 2.582a.392.392 0 01.108.114c.016.03 1.642 2.833 3.04 2.136.977-.49 1.558-.096 2.025.219.492.331.88.592 1.86-.033 1.022-.654 1.78-.56 2.394-.485.764.095 1.266.157 2.193-1.3a.337.337 0 01.16-.129l-1.448-3.358a.863.863 0 00-.148-.598c-.065-.433-.099-.883-.07-1.01l.538-3.053c.143-.51.353-1.131.39-1.205a.354.354 0 00.142-.367c-.008-.026-.625-2.652.214-4.704a.348.348 0 00-.08-.384l-.35-.328a.35.35 0 00-.177-.091L19.299.007a.355.355 0 00-.31.099.35.35 0 00-.093.312c.029.137.095.587.034.874-.086.476-.236.978-.319 1.075-.037.044-.076.105-.124.178-.217.335-.667 1.027-2.458 1.074l-.1.001c-1.713 0-2.376-1.06-2.424-1.138-.008-.009-.673-.89-.807-2.17a.35.35 0 00-.153-.253.341.341 0 00-.291-.044L11.09.367a1.001 1.001 0 00-1.022.428.36.36 0 00.05.453c.01.008.968.985.42 4.449zM7.176 25.192a.37.37 0 01.05.047c.005.004.559.585 2 .585 1.025 0 1.305.105 1.71.293.212.097.45.209.964.33.884.206 1.54.138 2.238.064a9.9 9.9 0 011.06-.072c.328 0 .51.022.667.04.321.04.498.06 2.142-.28.939-.196 1.416-.252 1.764-.293.508-.058.664-.076 1.689-.509.805-.341 1.899-.283 2.864-.227.682.04 1.505.085 1.816-.09a1.43 1.43 0 00.07-.427c.037-2.288-1.202-3.794-1.699-4.302a7.404 7.404 0 01-.801.69c-.619.437-1.21.485-1.781.53-.461.04-.938.078-1.49.311-.812.344-.992.376-1.433.43-.252.028-.592.068-1.275.21-1.279.264-1.48.258-1.809.217-.098-.01-.218-.025-.426-.025-.253 0-.49.025-.735.053a8.112 8.112 0 01-.856.056 4.38 4.38 0 01-1.026-.118c-.468-.109-.647-.21-.804-.313-.092-.059-.154-.096-.765-.096-1.203 0-2-.498-2.175-.616l-.133-.06c-.524-.237-1.143-.523-1.428-.938-.606.61-1.473 1.664-1.684 2.796.15.45.814 1.356 1.286 1.714z"/><path d="M26.57 25.625c-.489.336-1.331.293-2.287.241-.889-.05-1.894-.11-2.552.171-1.118.471-1.325.497-1.88.56-.332.04-.793.093-1.703.281-1.684.35-1.94.341-2.365.29-.137-.016-.298-.037-.586-.037-.334 0-.65.037-.986.07-.361.039-.73.077-1.133.077-.401 0-.837-.04-1.336-.154-.584-.138-.868-.27-1.099-.376-.308-.143-.494-.227-1.417-.227-1.606 0-2.34-.64-2.493-.794-.368-.288-.932-.936-1.273-1.545-.57.765-1.944 2.808-1.55 4.316.165.627.6 1.087 1.29 1.367.153.115.618.408 1.497.547.312.048.73.081 1.175.116.583.046 1.64.127 1.898.233v.22c0 .173.124.319.296.344.046.007 1.146.163 2.081.163.563 0 .945-.055 1.19-.174.093-.014.3-.039.534-.039.24 0 .441.026.588.076v.19c0 .176.13.323.306.344.041.004.993.115 1.865.115.668 0 1.304-.048 1.566-.356.332-.073.918-.186 1.225-.189a.424.424 0 00.16.02l3.021-.29a.347.347 0 00.296-.235l4.29-.844a.345.345 0 00.133-.057c.39-.281.613-.663.662-1.14.112-1.098-.783-2.466-1.414-3.284zM8.11 20.226c.052.25.842.609 1.18.76l.166.075c.02.012.04.023.061.038.005.003.697.503 1.795.503.74 0 .91.06 1.14.208.09.055.202.127.587.22.648.152 1.135.1 1.65.046.27-.03.53-.055.807-.055.25 0 .39.015.511.028.225.028.36.044 1.582-.208.711-.149 1.072-.188 1.333-.22.373-.045.487-.057 1.248-.38.655-.275 1.21-.32 1.701-.36.546-.046.975-.08 1.437-.407.21-.15.71-.58.786-.697a.363.363 0 01.32-.167c-.036-1.354-1.365-2.943-1.993-3.623-1.137 1.754-1.991 1.654-2.82 1.55-.576-.07-1.122-.139-1.932.38-.572.365-1.023.496-1.402.496-.522 0-.891-.252-1.22-.472-.427-.291-.712-.482-1.327-.175-1.876.939-3.617-1.843-3.913-2.343-.414.602-1.927 2.949-1.758 4.667.027.042.05.087.06.136z"/></symbol><symbol viewBox="0 0 32 32" id="fitness" xmlns="http://www.w3.org/2000/svg"><path d="M29.059 20.358l2.179-2.179L29.059 16l-5.44 5.44-13.06-13.06L16 2.941 13.822.763 11.64 2.94 9.464.76 6.202 4.024l-2.18-2.18-2.178 2.18 2.179 2.179-3.261 3.26 2.179 2.18L.76 13.82 2.942 16l5.44-5.44L21.44 23.619 16 29.059l2.179 2.18 2.179-2.18 2.18 2.18 3.26-3.262 2.18 2.18 2.178-2.18-2.179-2.179 3.261-3.26-2.179-2.18z"/></symbol><symbol viewBox="0 0 32 32" id="gardening" xmlns="http://www.w3.org/2000/svg"><path d="M31.33 2.268C30.28.288 28.213-.286 26.164.799c-1.327.703-1.922 1.853-2.12 3.038l-.729-1.284c-.3-.567-1.043-1.01-1.532-.75L12.03 6.965c-.49.259-.541 1.122-.241 1.69l1.562 3.215-8.24-1.563c-.074-.8-.322-1.345-.706-1.391-.553-.067-1.126.993-1.29 2.347-.165 1.353.154 2.514.706 2.58.423.052.861-.547 1.118-1.438l11.185 5.182 1.731 3.598c.3.568.894.73 1.384.47l10.64-5.631c.489-.26.689-.841.39-1.408l-1.055-1.82c.29-1.464.903-2.641 1.478-3.837 1.022-2.129 2.002-4.112.636-6.691zm-2.885 9.202L25.22 5.876c-.22-1.2-.253-3.13 1.488-4.051 1.503-.796 2.851-.417 3.608 1.012 1.092 2.062.326 3.655-.642 5.672-.43.896-.887 1.867-1.229 2.961zM4.65 28.421a.664.664 0 00.664-.664v-9.963a.664.664 0 10-1.329 0v9.963c0 .367.297.664.664.664zm-3.986 0a.664.664 0 00.664-.664V15.801a.664.664 0 10-1.328 0v11.956c0 .367.297.664.664.664zm1.993-7.971a.664.664 0 00.664-.663V15.8a.664.664 0 10-1.328 0v3.986c0 .366.297.664.664.664zm0 5.315a.664.664 0 00.664-.665v-3.32a.664.664 0 10-1.328 0v3.32c0 .367.297.665.664.665zm0 5.313a.664.664 0 00.664-.664v-3.321a.664.664 0 10-1.328 0v3.321c0 .367.297.664.664.664zm1.328 0a.664.664 0 101.329 0V29.75a.664.664 0 10-1.329 0v1.328zm-3.321.664a.664.664 0 00.664-.664V29.75a.664.664 0 10-1.328 0v1.328c0 .367.297.665.664.665z"/></symbol><symbol viewBox="0 0 32 32" id="house" xmlns="http://www.w3.org/2000/svg"><path d="M27.2 12.472V3.974h-4.8v4.169L16 2.37 0 16.802h4.8V29.63h8v-9.621h6.4v9.62h8V16.803H32l-4.8-4.33zm-14.4 1.123a3.213 3.213 0 013.2-3.207c1.76 0 3.2 1.443 3.2 3.207h-6.4z"/></symbol><symbol viewBox="0 0 32 32" id="jacket" xmlns="http://www.w3.org/2000/svg"><path d="M20.476 3.218c-.157-.396-.685-.687-1.204-.886.06 1.193-1.176 3.094-2.06 4.292 1.233-.655 2.477-1.834 2.984-2.392.29-.38.392-.73.28-1.014zM1.21 29.943c-.023.015-.052.011-.077.02l-.292 1.343a.39.39 0 00.22.432c.09.04.93.381 3.409.032a.383.383 0 00.325-.43c0-.013-.105-.905.281-1.485-.524-.257-2.188-.925-3.867.088zM18.474 2.204c-.06-.128-.24-.196-.53-.196A.429.429 0 0117.865 2c-.006-.001-.528-.105-1.45-.105-.982 0-2.03.113-3.12.336a.488.488 0 00-.371.328c-.118.36-.085 1.525 2.728 4.525.003.002.009.002.015.002h.014a.977.977 0 00.24-.054c1.256-1.546 2.9-4.093 2.552-4.828zm-8.008 1.291c-.14.46.406 1.043.886 1.45.025.022 1.475 1.287 3.012 1.862-1.699-1.95-2.411-3.375-2.196-4.35-.79.22-1.562.57-1.702 1.038z"/><path d="M15.418 15.113c-.314-2.155-.021-7.006-.005-7.269-.048-.003-.096-.004-.144-.011-.486-.027-.959-.08-1.414-.17.052.393.047.953-.162 1.71-.258.94-.018 1.641.179 2.208.079.228.154.448.188.658.072.46.036.987.015 1.335-.009.141-.021.255-.015.315a.38.38 0 01-.305.447.318.318 0 01-.074.009.398.398 0 01-.382-.318c-.023-.108-.015-.24.003-.503.024-.333.053-.79-.006-1.165a3.687 3.687 0 00-.155-.528c-.22-.628-.515-1.492-.194-2.663.263-.952.146-1.493.076-1.692-3.474-.922-5.846-3.194-5.967-3.31v-.002a3.971 3.971 0 00-1.4 1.01c-.9 1.023-1.271 2.502-1.105 4.398-.083.6-.554 4.13-.156 5.53-.373.517-1.308 1.957-.918 2.952-.217.513-.785 1.963-.656 2.864.041.268-.106.596-.306 1.054-.346.794-.868 1.987-.868 3.983 0 .975-.256 1.346-.48 1.677-.307.442-.48.802-.16 1.547 2.318-1.255 4.538.049 4.636.105a.356.356 0 01.088.08c.044-.024.095-.044.123-.084.063-.088.622-.938 1.173-4.504.165-1.078.363-1.94.556-2.611a153.622 153.622 0 01-.401 5.136c.027.005.05.008.075.018.048.024 3.182 1.569 8.17 1.723-.103-3.067-.197-7.692.121-8.729.42-1.363.184-3.01-.117-5.096l-.013-.104zm-3.301 5.115c-.154.465-1.563 4.56-3.211 5.447a.39.39 0 01-.523-.159.386.386 0 01.157-.523c1.169-.627 2.449-3.83 2.844-5.01a.39.39 0 01.489-.243.382.382 0 01.244.488zm-.366-2.626h-.006c-2.914-.049-4.712-6.48-4.91-7.21a.387.387 0 01.748-.2c.488 1.835 2.195 6.607 4.174 6.64a.386.386 0 01-.006.77z"/><path d="M11.731 6.224c-.508-.365-.846-.66-.884-.691-.952-.804-1.333-1.568-1.125-2.261.418-1.385 3.07-1.755 3.432-1.799l.005-.001a16.383 16.383 0 013.257-.346c.87 0 1.413.085 1.565.11.14.003.258.025.373.05.013.001.022-.003.034 0 .236.04 2.32.416 2.806 1.648.219.556.082 1.16-.407 1.795-.066.073-.71.773-1.607 1.495 1.56-.573 3.227-1.485 4.034-2.916l.008-.008a1.989 1.989 0 00-.237-.795c-.471-.88-1.56-1.556-3.218-1.996-.154-.055-3.904-1.284-8.553.287-1.931.65-2.988 1.286-3.324 1.997-.195.41-.127.77-.034 1.05.553.47 1.957 1.586 3.875 2.38z"/><path d="M29.926 24.835c.004-.63-.044-4.164-1.512-6.492.006-.475-.036-2.15-.805-3.17-.107-.609-.684-4.06-.527-6.43.006-.042.541-3.91-3.168-5.133-.008.025-.013.051-.025.077-1.097 1.947-3.48 3.017-5.39 3.584-.228.781-.618 2.597-.176 3.478.512 1.03.402 1.728.306 2.342a4.568 4.568 0 00-.073.67.387.387 0 01-.388.378h-.01a.385.385 0 01-.377-.396c.006-.28.045-.53.082-.77.09-.574.17-1.068-.232-1.88-.508-1.013-.21-2.695.005-3.591-.438.108-.826.189-1.133.245-.11.027-.22.05-.331.07.003.023.012.044.01.065-.003.053-.303 5.032-.003 7.123l.013.097c.317 2.185.561 3.91.092 5.438-.269.871-.194 5.257-.086 8.521 2.526.002 5.477-.362 8.718-1.436.015-.006.03-.004.044-.006-.059-.544-.178-1.657-.331-3.016.106.356.282.767.592 1.276.39.64.378.92.364 1.272-.021.478-.036 1.026.771 2.246.61-.386 2.204-1.158 4.372-.608.027-.103.05-.206.088-.31a.615.615 0 00.079-.099c.197-.311.235-.977-.97-3.545zm-6.914.68a.386.386 0 01-.524.16c-1.646-.887-3.053-4.982-3.211-5.448a.386.386 0 01.247-.487.392.392 0 01.49.242c.394 1.18 1.674 4.385 2.842 5.01a.386.386 0 01.156.524zm1.549-14.846c-.196.732-1.996 7.162-4.908 7.212h-.007a.389.389 0 01-.387-.38.384.384 0 01.378-.393c1.98-.035 3.686-4.805 4.175-6.641a.386.386 0 01.472-.272c.21.055.33.265.277.474z"/><path d="M16.228 29.858c.02.521.038.999.056 1.408 2.315-.063 5.096-.382 8.418-1.153a.388.388 0 00.3-.378v-1.33c-3.272 1.066-6.237 1.443-8.774 1.453zm-9.188-1.79l-.21 1.043a.39.39 0 00.161.393c.146.102 2.692 1.785 8.522 1.771-.016-.347-.039-.832-.059-1.433-4.674-.121-7.75-1.454-8.414-1.774zm23.59 1.492c-1.916-.517-3.328.16-3.845.48.182.337.37.842.303 1.462a.391.391 0 00.322.42c.039.008.495.078 1.094.078.67 0 1.525-.088 2.185-.458a.386.386 0 00.173-.476c0-.011-.245-.682-.232-1.505z"/></symbol><symbol viewBox="0 0 32 32" id="laptop" xmlns="http://www.w3.org/2000/svg"><path d="M28.577 4.966a.97.97 0 00-.28-.683A.95.95 0 0027.62 4H4.38a.95.95 0 00-.677.283.97.97 0 00-.28.683V21.12h25.154V4.966zM16 4.541c.157 0 .285.128.285.288a.287.287 0 01-.285.287.287.287 0 01-.285-.287c0-.16.128-.288.285-.288zm10.937 14.92H5.063V5.658h21.874v13.805zM.343 26.73h31.316c.134 0 .261-.08.316-.213a.347.347 0 00-.075-.376l-3.322-3.345H3.423L.101 26.14a.347.347 0 00.242.59zm3.253-2.043l.904-1.063h23.002l.904 1.063a.278.278 0 01.04.295.273.273 0 01-.248.16h-8.894l.05.231a.165.165 0 01-.16.2h-6.386a.165.165 0 01-.128-.06c-.032-.041-.043-.092-.032-.14l.05-.23H3.803a.273.273 0 01-.248-.16.278.278 0 01.04-.296zM18.769 27.947a.37.37 0 01-.339.225h-4.86a.368.368 0 01-.34-.225H.343a.541.541 0 01-.341-.122v.347c0 .211.08.424.24.585.16.162.37.243.58.243h30.358a.828.828 0 00.82-.828v-.347a.542.542 0 01-.341.122h-12.89zm-15.877.707a.18.18 0 01-.179-.18c0-.1.08-.181.179-.181a.18.18 0 01.178.18c0 .1-.08.181-.178.181zm.86 0a.18.18 0 01-.18-.18c0-.1.081-.181.18-.181a.18.18 0 010 .361zm.86 0a.18.18 0 01-.18-.18c0-.1.08-.181.18-.181a.18.18 0 01.178.18c0 .1-.08.181-.178.181z"/><path d="M6 7.412c0-.558.448-1.01 1-1.01h18c.552 0 1 .452 1 1.01V17.51c0 .558-.448 1.01-1 1.01H7c-.552 0-1-.452-1-1.01V7.412z"/></symbol><symbol viewBox="0 0 24 24" id="loupe" xmlns="http://www.w3.org/2000/svg"><path d="M9.681 0a9.295 9.295 0 105.31 16.924l7.028 7.028a.163.163 0 00.226.004l1.324-1.324c.062-.061.056-.166-.004-.226l-6.937-6.937A9.295 9.295 0 009.681 0zm0 17.495a8.201 8.201 0 110-16.402 8.201 8.201 0 010 16.402z"/></symbol><symbol viewBox="0 0 32 32" id="mortgage" xmlns="http://www.w3.org/2000/svg"><path d="M31.71 19.726c-.897-1.25-1.81-1.316-3.977-.217v1.575a1.61 1.61 0 01-.765 1.365l-3.053 1.866-.028.015c-.828.442-1.99.67-3.768.741l-3.197.002A1.602 1.602 0 0115.419 24h-4.218c-1.6 0-1.6.803-1.6 1.067a.533.533 0 11-1.067 0c0-1.336.997-2.133 2.667-2.133h4.22a1.605 1.605 0 011.453-1.06h.002a2.546 2.546 0 00-1.613-.555h-2.08c-1.59 0-3.13-.502-4.339-1.412-.053-.04-.21-.158-.6-.158-.148 0-.315.017-.499.049a1.604 1.604 0 01-1.878-1.575v-.08c-.836.334-1.588.765-2.133 1.111v-1.12H.001V32h3.733v-1.6h6.933c1.09 0 2.188-.083 3.262-.247l6.913-1.05c.252-.003.507-.034.734-.085.636-.09 1.245-.393 1.761-.88l8.084-6.295.012-.01c.63-.521.751-1.447.277-2.107zm-29.042.279v10.928h-1.6V19.2h1.6v.805zm11.199-9.871a1.068 1.068 0 000-2.133 1.068 1.068 0 000 2.133zm6.4 4.266a1.068 1.068 0 000 2.134 1.068 1.068 0 000-2.133z"/><path d="M4.735 10.668h2.2v7.554a.536.536 0 00.625.525c.828-.146 1.458-.046 1.925.308 1.025.772 2.338 1.197 3.698 1.197h2.08c1.209 0 2.31.568 2.947 1.518.22.329.31.603.243.734-.102.197-.619.408-1.548.435a.533.533 0 00.016 1.067h3.156c1.585-.063 2.628-.254 3.308-.617l3.027-1.85a.535.535 0 00.255-.455V10.668H28.8a.535.535 0 00.358-.93L19.58 1.077a4.215 4.215 0 00-5.629.002l-9.575 8.66a.533.533 0 00.358.93zM20.267 17.6a2.135 2.135 0 01-2.133-2.134c0-1.176.956-2.133 2.133-2.133s2.133.957 2.133 2.133a2.135 2.135 0 01-2.133 2.133zm-6.4-10.667c1.177 0 2.133.957 2.133 2.133a2.135 2.135 0 01-2.133 2.134 2.135 2.135 0 01-2.133-2.134c0-1.176.957-2.133 2.133-2.133zM11.89 16.69l9.6-9.6a.533.533 0 11.754.755l-9.6 9.6a.532.532 0 01-.754 0 .533.533 0 010-.755z"/></symbol><symbol viewBox="0 0 32 32" id="pets" xmlns="http://www.w3.org/2000/svg"><path d="M4 15.154c2.21 0 4-1.884 4-4.21C8 8.62 6.21 6.736 4 6.736s-4 1.885-4 4.21 1.79 4.21 4 4.21zM11.2 8.42c2.21 0 4-1.886 4-4.21 0-2.325-1.79-4.21-4-4.21s-4 1.885-4 4.21c0 2.324 1.79 4.21 4 4.21zM20.8 8.42c2.21 0 4-1.886 4-4.21 0-2.325-1.79-4.21-4-4.21s-4 1.885-4 4.21c0 2.324 1.79 4.21 4 4.21zM28 15.154c2.21 0 4-1.884 4-4.21 0-2.324-1.79-4.209-4-4.209s-4 1.885-4 4.21 1.79 4.21 4 4.21zM24.544 19.97c-1.392-1.717-2.56-3.182-3.968-4.9-.736-.91-1.68-1.818-2.8-2.222a3.111 3.111 0 00-.528-.152c-.4-.067-.832-.067-1.248-.067-.416 0-.848 0-1.264.084a3.101 3.101 0 00-.528.151c-1.12.404-2.048 1.314-2.8 2.223-1.392 1.718-2.56 3.183-3.968 4.9-2.096 2.206-4.672 4.647-4.192 8.065.464 1.718 1.632 3.419 3.728 3.907 1.168.253 4.896-.741 8.864-.741h.288c3.968 0 7.696.977 8.864.74 2.096-.487 3.264-2.205 3.728-3.906.496-3.434-2.08-5.876-4.176-8.082z"/></symbol><symbol viewBox="0 0 32 32" id="plug" xmlns="http://www.w3.org/2000/svg"><path d="M26.784 7.314h-3.929V.407A.407.407 0 0022.45 0h-3.095a.407.407 0 00-.407.407v6.907h-5.895V.407A.407.407 0 0012.646 0H9.55a.407.407 0 00-.407.407v6.907H5.216a.417.417 0 00-.417.417V18.84a4.091 4.091 0 004.087 4.086h14.228A4.091 4.091 0 0027.2 18.84V7.73a.417.417 0 00-.416-.416zm-8.866 17.347h-3.836V32h3.836v-7.339z"/></symbol><symbol viewBox="0 0 32 32" id="shoe" xmlns="http://www.w3.org/2000/svg"><path d="M26.223 1.622c-2.005-2.162-5.025-2.162-7.03 0-1.756 1.896-2.733 5.197-2.489 8.408.04.52.076 1.058.111 1.604.155 2.396.27 4.975.367 7.188.068 1.521.128 2.872.188 3.874.018.3.031.634.044.993.112 2.938.3 7.74 3.959 8.258v-2.77c-1.176-.495-2.002-2.266-2.002-4.519 0-2.346.892-4.18 2.145-4.584l.078-1.422h-.888a.668.668 0 010-1.334h.963l.075-1.335h-1.037a.668.668 0 010-1.334h1.112l.076-1.367c.192.012.396.036.578.036l.257-.004c.156-.005.327-.019.5-.032l-.075 1.368h.888a.668.668 0 010 1.335h-.963l-.075 1.334h1.037a.668.668 0 010 1.335H22.93l-.087 1.557c1.102.573 1.866 2.284 1.866 4.449 0 2.254-.826 4.025-2.002 4.519V32c2.704 0 4.275-3.354 4.67-9.97.079-1.313.315-3.148.565-5.091.215-1.671.447-3.478.623-5.26v-.002a73.49 73.49 0 00.145-1.647c.247-3.213-.73-6.512-2.487-8.408zm1.16 8.305c-.03.388-.063.78-.1 1.176-.098.029-.193.06-.297.09a25.198 25.198 0 01-2.302.538c-.19.034-.374.063-.557.092-.203.031-.4.06-.59.082-.301.036-.597.068-.85.076l-.215.001c-.157 0-.335-.02-.504-.03v-.002a10.818 10.818 0 01-.961-.104l-.005-.001a14.47 14.47 0 01-.942-.182c-.09-.02-.18-.043-.27-.064a18.46 18.46 0 01-.75-.2c-.174-.05-.35-.108-.527-.166a17.25 17.25 0 01-.394-.133c-.027-.4-.055-.791-.084-1.174-.215-2.814.645-5.787 2.138-7.398C21.681.9 23.736.9 25.245 2.528c1.493 1.612 2.351 4.584 2.138 7.399zM5.777 1.622C4.022 3.518 3.045 6.819 3.289 10.03c.041.543.09 1.094.145 1.647.177 1.783.409 3.59.624 5.26.25 1.944.487 3.779.564 5.092.395 6.616 1.966 9.97 4.67 9.97v-2.822c-1.176-.495-2.002-2.266-2.002-4.519 0-2.165.765-3.875 1.866-4.448l-.087-1.556H7.957a.668.668 0 010-1.335h1.037l-.074-1.334h-.964a.668.668 0 010-1.335h.889l-.076-1.368c.172.015.343.028.5.032l.258.003c.181 0 .385-.024.578-.036l.076 1.366h1.111a.668.668 0 010 1.335h-1.037l.075 1.335h.964a.668.668 0 010 1.334h-.89l.08 1.422c1.253.404 2.144 2.238 2.144 4.584 0 2.254-.826 4.025-2.002 4.519v2.77c3.661-.519 3.848-5.32 3.959-8.258.013-.36.027-.694.044-.993.06-1.002.12-2.353.188-3.874.099-2.214.214-4.793.367-7.188.035-.546.072-1.085.111-1.605.244-3.21-.733-6.511-2.489-8.408-2.005-2.16-5.025-2.16-7.03.002zm8.19 8.305c-.03.383-.057.775-.084 1.174-.132.046-.263.091-.394.134-.177.056-.352.115-.527.165a18.625 18.625 0 01-1.02.264c-.322.071-.639.134-.942.182l-.005.001c-.334.051-.655.086-.961.103v.003c-.168.012-.346.03-.504.03l-.215-.002a10.19 10.19 0 01-.85-.076 24.388 24.388 0 01-1.147-.176c-.204-.036-.41-.078-.615-.122-.195-.04-.389-.084-.58-.127a25.12 25.12 0 01-1.107-.288c-.104-.03-.2-.061-.296-.09a62.69 62.69 0 01-.1-1.175c-.215-2.815.644-5.787 2.137-7.4 1.509-1.626 3.564-1.626 5.072 0 1.493 1.613 2.352 4.585 2.138 7.4z"/></symbol><symbol viewBox="0 0 20 20" id="star" xmlns="http://www.w3.org/2000/svg"><path d="M10 1.62l2.641 5.352.117.236.26.038 5.907.858-4.274 4.167-.188.183.044.26 1.009 5.883-5.283-2.778-.233-.123-.233.123-5.283 2.778 1.009-5.884.044-.259-.188-.183-4.275-4.167 5.908-.858.26-.038.116-.236L10 1.62z"/></symbol><symbol viewBox="0 0 20 20" id="star-half" xmlns="http://www.w3.org/2000/svg"><path d="M10 1.62l2.641 5.352.117.236.26.038 5.907.858-4.274 4.167-.188.183.044.26 1.009 5.883-5.283-2.778-.233-.122-.233.122-5.283 2.778 1.009-5.884.044-.259-.188-.183-4.275-4.167 5.908-.858.26-.038.116-.236L10 1.62z"/><path d="M10 .49L6.91 6.75 0 7.756l5 4.874-1.18 6.882L10 16.26V.49z"/></symbol><symbol viewBox="0 0 32 32" id="travel" xmlns="http://www.w3.org/2000/svg"><path d="M22.4 8h3.2v22.4H6.4V8h3.2V6.4a3.2 3.2 0 013.2-3.2h6.4a3.2 3.2 0 013.2 3.2V8zm4.8 0h1.6a3.2 3.2 0 013.2 3.2v16a3.2 3.2 0 01-3.2 3.2h-1.6V8zM4.8 8v22.4H3.2A3.2 3.2 0 010 27.2v-16C0 9.44 1.44 8 3.2 8h1.6zm8-1.6V8h6.4V6.4h-6.4z"/></symbol><symbol viewBox="0 0 32 32" id="tshirt" xmlns="http://www.w3.org/2000/svg"><path d="M17.675 4.18c.443.245.8.66.902.785a.36.36 0 01.07.15c.147.84.395 1.21.553 1.366 1.226-1.441 1.215-4.566 1.195-5.267l-.672-.556c.025 1.434-1.15 2.737-2.048 3.522zM13.805 3.98c-1.121-.762-1.702-2.266-1.953-3.12l-.669.587c-.013.62.011 2.743.794 4.425.361-.63 1.002-1.546 1.828-1.891zM18.811 1.567c.181-.457.244-.938.105-1.417-.8-.094-1.591-.15-2.357-.15-2.038 0-3.418.332-4.05.526.086.315.235.772.452 1.244.742-.186 2.8-.578 5.85-.203zM16.71 4.049l.031-.012c.484-.378 1.236-1.04 1.738-1.824-2.61-.292-4.43.007-5.187.181.285.466.645.891 1.107 1.139.024.012.383.183.656.418.247.105.554.343.684.742.153-.124.336-.236.555-.327.039-.028.122-.086.235-.169.04-.064.1-.117.181-.148zM16.316 13.299c-.087-.906-.475-5.19-.277-7.914-.295.34-.347.712-.347.718l-.027.178c0 .009.005.015.005.022v7.273a1.4 1.4 0 00.646-.277z"/><path d="M31.94 11.546l-3.834-5.43c-1.633-2.01-2.763-2.417-2.77-2.417l-4.21-2.047c-.004 1.27-.178 4.171-1.602 5.508a.376.376 0 01-.317.095c-.156-.027-.937-.236-1.262-1.941-.274-.317-.666-.619-.882-.642-.1.074-.182.133-.246.177-.338 2.806.229 8.49.236 8.548a.335.335 0 01-.094.263c-.549.557-1.27.62-1.558.62-.075 0-.122-.004-.131-.006a.348.348 0 01-.326-.337V6.303c0-.014.008-.027.01-.04-.003-.02-.012-.038-.009-.06l.052-.67a.324.324 0 01.014-.073c.215-.677-.189-.863-.275-.895-1.248-.393-2.4 2.175-2.413 2.2a.36.36 0 01-.307.213.364.364 0 01-.338-.165c-.996-1.563-1.191-3.676-1.22-4.805L6.703 3.682c-.045.017-1.177.421-2.826 2.455L.06 11.547a.327.327 0 00.068.448l4.95 3.918a.386.386 0 00.499-.028l.535-.535A.335.335 0 016 15.148c-.438-3.16-.017-5.587.002-5.69a.36.36 0 01.418-.279c.196.03.331.207.297.393-.004.023-.423 2.435.003 5.488a.313.313 0 01-.021.153c.083 2.211.231 7.43.231 16.006 0 .173.135.318.32.34.04.004 3.962.441 7.871.441.265 0 .526-.003.785-.006h.184c.262.003.526.006.789.006 3.911 0 7.836-.438 7.876-.442a.35.35 0 00.317-.339c0-8.685.156-13.925.235-16.087 0-.016-.007-.032-.005-.049.005-.028.008-.053.01-.081.005-.075.006-.155.009-.22l.015.014c.337-2.968-.026-5.205-.032-5.228-.03-.186.105-.36.304-.39.197-.028.383.098.413.283.017.1.41 2.499 0 5.703a.342.342 0 01-.11.205l.514.515c.13.131.349.143.496.028l4.951-3.918c.14-.11.17-.304.069-.447z"/></symbol><symbol viewBox="0 0 32 32" id="umbrella" xmlns="http://www.w3.org/2000/svg"><path d="M14.77 15.308v11.153c0 .642-.25 1.212-.75 1.712s-1.071.75-1.712.75c-.64 0-1.211-.25-1.711-.75s-.75-1.07-.75-1.712c0-.333-.122-.621-.365-.865a1.183 1.183 0 00-.866-.365c-.333 0-.622.121-.866.365a1.183 1.183 0 00-.365.865c0 1.334.487 2.487 1.462 3.462.974.975 2.128 1.46 3.461 1.46 1.333 0 2.487-.486 3.462-1.46.974-.975 1.461-2.128 1.461-3.462V15.308a3.884 3.884 0 00-1.23-.211c-.398 0-.809.07-1.231.211zM17.231 3.732V1.847c0-.333-.122-.622-.366-.865A1.182 1.182 0 0016 .616c-.333 0-.621.122-.865.366a1.183 1.183 0 00-.365.865v1.885c.538-.026.948-.039 1.23-.039.282 0 .693.013 1.231.038z"/><path d="M31.98 15.693a13.48 13.48 0 00-2.221-4.836C28.7 9.4 27.454 8.203 26.019 7.26a17.86 17.86 0 00-4.74-2.182 18.416 18.416 0 00-5.28-.77c-2.435 0-4.746.437-6.932 1.308a15.733 15.733 0 00-5.73 3.933 13.613 13.613 0 00-3.318 6.144.59.59 0 00.163.567.592.592 0 00.433.183c.141 0 .289-.064.443-.193.628-.59 1.224-1.032 1.788-1.326.564-.295 1.218-.443 1.962-.443a4.61 4.61 0 012.461.712 6.843 6.843 0 011.98 1.865 8.3 8.3 0 01.337.538c.135.231.228.385.28.462.14.218.32.327.538.327.23 0 .416-.11.557-.327.052-.077.145-.23.28-.462.134-.23.246-.41.336-.538a6.895 6.895 0 011.97-1.865A4.563 4.563 0 0116 14.48c.872 0 1.689.237 2.452.712a6.891 6.891 0 011.97 1.865c.09.128.203.308.337.538.135.231.228.385.28.462.14.218.326.327.557.327.218 0 .398-.11.538-.327.052-.077.145-.23.28-.462.134-.23.246-.41.336-.538a6.853 6.853 0 011.98-1.865 4.611 4.611 0 012.463-.712c.743 0 1.397.148 1.961.443.564.294 1.16.737 1.788 1.326.154.129.302.192.443.192a.59.59 0 00.432-.182.591.591 0 00.183-.433.32.32 0 00-.02-.134z"/></symbol><symbol viewBox="0 0 32 32" id="washing-machine" xmlns="http://www.w3.org/2000/svg"><path d="M23.723 0H8.277A4.282 4.282 0 004 4.277v1.056h24V4.277A4.282 4.282 0 0023.723 0zM16 22.667c.616 0 1.195-.152 1.716-.403a1.33 1.33 0 011.881-1.881c.251-.522.403-1.1.403-1.716 0-2.206-1.795-4-4-4s-4 1.794-4 4c0 2.205 1.795 4 4 4z"/><path d="M4 27.723A4.282 4.282 0 008.277 32h15.444A4.282 4.282 0 0028 27.723V8H4v19.723zM16 12a6.674 6.674 0 016.667 6.667 6.624 6.624 0 01-1.111 3.67l.72.72a1.332 1.332 0 01-.943 2.276c-.341 0-.682-.13-.942-.39l-.72-.72a6.625 6.625 0 01-3.67 1.11 6.674 6.674 0 01-6.668-6.666A6.674 6.674 0 0116 12z"/></symbol></svg>