<svg width="0" height="0" style="position:absolute"><symbol viewBox="0 0 14 14" id="arrow-back" xmlns="http://www.w3.org/2000/svg"><path d="M9.652 12.305a.41.41 0 01-.29-.12L4.307 7.129a.41.41 0 010-.58l5.055-5.056a.41.41 0 11.58.58L5.177 6.839l4.765 4.765a.41.41 0 01-.29.7z"/></symbol><symbol viewBox="0 0 24 24" id="loupe" xmlns="http://www.w3.org/2000/svg"><path d="M9.681 0a9.295 9.295 0 105.31 16.924l7.028 7.028a.163.163 0 00.226.004l1.324-1.324c.062-.061.056-.166-.004-.226l-6.937-6.937A9.295 9.295 0 009.681 0zm0 17.495a8.201 8.201 0 110-16.402 8.201 8.201 0 010 16.402z"/></symbol><symbol viewBox="0 0 20 20" id="star" xmlns="http://www.w3.org/2000/svg"><path d="M10 .49l3.09 6.26L20 7.756l-5 4.874 1.18 6.882L10 16.26l-6.18 3.25L5 12.629 0 7.755 6.91 6.75 10 .489z"/></symbol><symbol viewBox="0 0 20 20" id="star-outline" xmlns="http://www.w3.org/2000/svg"><path d="M10 1.62l2.641 5.352.117.236.26.038 5.907.858-4.274 4.167-.188.183.044.26 1.009 5.883-5.283-2.778-.233-.123-.233.123-5.283 2.778 1.009-5.884.044-.259-.188-.183-4.275-4.167 5.908-.858.26-.038.116-.236L10 1.62z"/></symbol></svg>