<svg xmlns="http://www.w3.org/2000/svg" fill="none" viewBox="0 0 38 38">
  <rect width="38" height="38" fill="#fff" rx="2"/>
  <path fill="#FF4B55" d="M9.165 14.1223c.6965-1.4183 1.6805-2.6171 2.9206-3.6139 1.6805-1.3568 3.608-2.1736 5.7692-2.4238 2.5387-.2942 4.9246.1756 7.1307 1.4666.5482.3205 1.0604.685 1.5502 1.0802.1213.0966.1078.1537.0045.2503-1.002.9748-2.004 1.9496-2.997 2.9332-.1168.1142-.1797.1054-.3055.0132-2.9116-2.1911-7.1577-1.5984-9.3279 1.2998-.3819.5093-.6919 1.0582-.9076 1.6554-.018.0527-.0539.101-.0809.1537-.5796-.4303-1.1637-.8607-1.7388-1.2954-.674-.5049-1.348-1.0099-2.0175-1.5193Z"/>
  <path fill="#00B67A" d="M12.9209 21.0558c.1933.4171.355.8519.5976 1.2427 1.02 1.6334 2.4758 2.6829 4.3944 3.0562 1.7298.3381 3.3923.1097 4.9425-.7377.0539-.0264.1078-.0527.1572-.0791.027.0264.0495.0571.0764.0791 1.1593.8782 2.323 1.7564 3.4822 2.6346-.5571.5401-1.1907.9748-1.8646 1.3525-1.9546 1.089-4.0709 1.5281-6.2995 1.3612-2.7768-.2108-5.1716-1.2822-7.1486-3.2143-.8672-.8475-1.5816-1.8047-2.0983-2.8981.4807-.3601.9615-.7157 1.4423-1.0758.7728-.5752 1.5456-1.1461 2.3184-1.7213Z"/>
  <path fill="#0060FF" d="M26.5761 27.2516c-1.1592-.8782-2.3229-1.7565-3.4822-2.6347-.0269-.0219-.0539-.0527-.0764-.079.3999-.303.8088-.5972 1.1368-.9836.5482-.6411.9121-1.3656 1.1008-2.178.0225-.101.0045-.1361-.0988-.1317-.0539.0044-.1033 0-.1573 0-1.8332 0-3.6709-.0044-5.5041.0044-.2022 0-.2471-.0527-.2426-.2415a273.3122 273.3122 0 0 0 0-3.8203c0-.1625.0449-.2064.2111-.2064 3.3609.0044 6.7218.0044 10.0872 0 .1438 0 .2022.0352.2382.1845.2741 1.2075.2561 2.4194.0898 3.6402-.1348.9748-.3774 1.9189-.7503 2.8322-.5527 1.3481-1.366 2.5249-2.4353 3.5348-.0405.0308-.0809.0527-.1169.0791Z"/>
  <path fill="#FFD414" d="M12.9211 21.0557c-.7729.5753-1.5457 1.1461-2.3185 1.7213-.4808.3557-.9616.7158-1.4423 1.0758-.373-.6762-.6156-1.3919-.8133-2.1296-.3774-1.4271-.4358-2.8762-.2292-4.3296.1618-1.1417.4988-2.2395 1.0425-3.267.674.505 1.3434 1.0143 2.0174 1.5193.5796.4347 1.1592.865 1.7389 1.2954-.0989.4698-.2382.9309-.2831 1.4139-.0809.8782.0045 1.7345.2606 2.5776.018.0351.0225.079.027.1229Z"/>
</svg>
