<svg xmlns="http://www.w3.org/2000/svg" fill="none" viewBox="0 0 200 50">
  <path fill="#5A7197" d="M54.6982 15.3017V5.66164h-4.8276V4.43966h10.8621v1.22198h-4.8125v9.64006h-1.222Zm10.1649 0V4.45474h9.0517c.503 0 .9304.18104 1.2823.5431.3522.35201.528.77442.528 1.26725v3.18318c0 .49283-.1758.92023-.528 1.28233-.3519.352-.7793.528-1.2823.528h-1.6595l3.4095 4.028v.0151h-1.6142l-3.3944-4.0431-4.5712-.0151v4.0582h-1.2219Zm1.8103-5.2802h7.2414c.161 0 .2968-.05527.4073-.1659.1108-.11062.166-.2464.166-.40733V6.26509c0-.16093-.0552-.29671-.166-.40733-.1105-.12069-.2463-.18104-.4073-.18104h-7.2414c-.1608 0-.3017.06035-.4224.18104-.1106.11062-.166.2464-.166.40733v3.18318c0 .16093.0554.29671.166.40733.1207.11063.2616.1659.4224.1659Zm15.4513 5.2802c-.5028 0-.9304-.176-1.2823-.528-.352-.352-.528-.7795-.528-1.2823V4.43966h1.2219v9.05174c0 .1609.0554.3017.166.4224.1207.1106.2614.1659.4224.1659h7.2414c.161 0 .2967-.0553.4073-.1659.1207-.1207.181-.2615.181-.4224V4.43966h1.222v9.05174c0 .5028-.1761.9303-.528 1.2823s-.7795.528-1.2823.528h-7.2414Zm15.4653 0c-.503 0-.9304-.176-1.2823-.528-.3522-.352-.528-.7795-.528-1.2823v-.4224h1.2219v.4224c0 .1609.0552.3017.166.4224.1207.1106.2614.1659.4224.1659h7.241c.161 0 .297-.0553.408-.1659.12-.1207.181-.2615.181-.4224v-2.4289c0-.1609-.061-.2967-.181-.4073-.111-.1107-.247-.166-.408-.166H97.59c-.503 0-.9304-.176-1.2823-.52799-.3522-.36207-.528-.78951-.528-1.28233V6.25c0-.50287.1758-.93032.528-1.28233.3519-.352.7793-.52801 1.2823-.52801h7.241c.503 0 .931.17601 1.283.52801.352.35201.528.77946.528 1.28233v.42241h-1.222V6.25c0-.16093-.061-.2967-.181-.40733-.111-.12069-.247-.18103-.408-.18103H97.59c-.161 0-.3017.06034-.4224.18103-.1108.11063-.166.2464-.166.40733v2.42888c0 .16092.0552.2967.166.40733.1207.11062.2614.16594.4224.16594h7.241c.503 0 .931.18104 1.283.54311.352.35204.528.77444.528 1.26724v2.4289c0 .5028-.176.9303-.528 1.2823-.352.352-.78.528-1.283.528H97.59Zm17.972 0V5.66164h-4.828V4.43966h10.862v1.22198h-4.812v9.64006h-1.222Z"/>
  <path fill="#323B5A" d="M50.8523 44.8276V29.3103h2.3922l11.3793 13.5345V29.3103h1.7457v15.5173h-2.3922L52.598 31.2931v13.5345h-1.7457Zm17.975 0v-12.931c0-.7184.2513-1.3291.7543-1.8319.5028-.5028 1.1134-.7544 1.8319-.7544h10.3448c.7184 0 1.3289.2516 1.8319.7544.5028.5028.7543 1.1135.7543 1.8319v12.931h-1.7457v-5.6681H70.573v5.6681h-1.7457Zm1.7457-7.4138h12.0258v-5.5172c0-.23-.0862-.424-.2586-.5819-.1582-.1725-.3521-.2587-.5819-.2587H71.4135c-.23 0-.431.0862-.6034.2587-.1582.1579-.2371.3519-.2371.5819v5.5172Zm24.7614 7.4138-8.9871-15.5173h2.0475l7.9525 13.8147 7.9307-13.8147h2.048l-8.9657 15.5173h-2.0259Zm12.9946 0V29.3103h1.767v15.5173h-1.767Zm7.281 0c-.718 0-1.329-.2515-1.832-.7543-.502-.5028-.754-1.1136-.754-1.8319V31.8966c0-.7184.252-1.3291.754-1.8319.503-.5028 1.114-.7544 1.832-.7544h10.345c.718 0 1.329.2516 1.832.7544.503.5028.754 1.1135.754 1.8319v.625h-1.745v-.625c0-.23-.087-.424-.259-.5819-.158-.1725-.352-.2587-.582-.2587H115.61c-.23 0-.431.0862-.603.2587-.158.1579-.237.3519-.237.5819v10.3448c0 .2299.079.431.237.6034.172.158.373.2371.603.2371h10.345c.23 0 .424-.0791.582-.2371.172-.1724.259-.3735.259-.6034v-3.8362h-3.837v-1.7673h5.582v5.6035c0 .7183-.251 1.3291-.754 1.8319-.503.5028-1.114.7543-1.832.7543H115.61Zm15.347 0v-12.931c0-.7184.251-1.3291.754-1.8319.503-.5028 1.114-.7544 1.832-.7544h10.345c.718 0 1.329.2516 1.832.7544.503.5028.754 1.1135.754 1.8319v12.931h-1.746v-5.6681h-12.025v5.6681h-1.746Zm1.746-7.4138h12.025v-5.5172c0-.23-.086-.424-.258-.5819-.158-.1725-.352-.2587-.582-.2587h-10.345c-.23 0-.431.0862-.603.2587-.158.1579-.237.3519-.237.5819v5.5172Zm22.347 7.4138V31.056h-6.896v-1.7457h15.517v1.7457h-6.875v13.7716h-1.746Zm12.776 0c-.719 0-1.329-.2515-1.832-.7543-.503-.5028-.754-1.1136-.754-1.8319V31.8966c0-.7184.251-1.3291.754-1.8319.503-.5028 1.113-.7544 1.832-.7544h10.345c.718 0 1.329.2516 1.832.7544.503.5028.754 1.1135.754 1.8319v10.3448c0 .7183-.251 1.3291-.754 1.8319-.503.5028-1.114.7543-1.832.7543h-10.345Zm0-1.7457h10.345c.23 0 .424-.0791.582-.2371.172-.1724.258-.3735.258-.6034V31.8966c0-.23-.086-.424-.258-.5819-.158-.1725-.352-.2587-.582-.2587h-10.345c-.23 0-.431.0862-.603.2587-.159.1579-.238.3519-.238.5819v10.3448c0 .2299.079.431.238.6034.172.158.373.2371.603.2371Zm15.283 1.7457V29.3319h12.931c.718 0 1.329.2586 1.832.7759.502.5028.754 1.1062.754 1.8103v4.5474c0 .7041-.252 1.3147-.754 1.8319-.503.5028-1.114.7543-1.832.7543h-2.371l4.871 5.7543v.0216h-2.306l-4.849-5.7759-6.531-.0215v5.7974h-1.745Zm2.586-7.5431h10.345c.23 0 .424-.0791.582-.2371.158-.158.237-.3519.237-.5819v-4.5474c0-.23-.079-.4239-.237-.5819-.158-.1724-.352-.2586-.582-.2586h-10.345c-.23 0-.431.0862-.603.2586-.158.158-.238.3519-.238.5819v4.5474c0 .23.08.4239.238.5819.172.158.373.2371.603.2371Z"/>
  <path fill="#5A7197" d="M0 4.31034h43.1034V19.8276h-8.4051v-6.25h-7.5431v12.069l-11.2069-12.069H8.40517v6.25H0V4.31034Z"/>
  <path fill="#F90" d="M34.6984 44.8276H8.40527v-9.2673h7.54313V23.4914l11.2069 12.0689h7.5431v9.2673Z"/>
</svg>
